<svg version="1.1" xmlns="http://www.w3.org/2000/svg" xmlns:xlink="http://www.w3.org/1999/xlink" width="373.05363" height="474.32914" viewBox="0,0,373.05363,474.32914"><g transform="translate(-53.47318,57.16456)"><g data-paper-data="{&quot;isPaintingLayer&quot;:true}" fill-rule="nonzero" stroke-linejoin="miter" stroke-miterlimit="10" stroke-dasharray="" stroke-dashoffset="0" style="mix-blend-mode: normal"><g><path d="M220.47639,17.8919c0,0 0.0078,-0.64309 0.02323,-0.96173c0.5014,-10.35401 9.05495,-18.59474 19.53323,-18.59474c10.54594,0 19.14222,8.3475 19.54193,18.79558c0.00966,0.25243 0.01453,0.76089 0.01453,0.76089h-13.20991c-0.07724,-3.38464 -2.84515,-6.10464 -6.24834,-6.10464c-3.4032,0 -6.1711,2.72001 -6.24834,6.10464z" fill="#d3ffda" stroke="none" stroke-width="0" stroke-linecap="butt"/><path d="M220.4764,17.8919c0,-10.80074 8.75573,-19.55646 19.55646,-19.55646c10.80074,0 19.55646,8.75573 19.55646,19.55646c0,10.80074 -8.75573,19.55646 -19.55646,19.55646c-10.80074,0 -19.55646,-8.75573 -19.55646,-19.55646z" fill="none" stroke="#a6ffb5" stroke-width="3" stroke-linecap="butt"/><path d="M220.47319,17.83881h13.31296" fill="none" stroke="#a6ffb5" stroke-width="3" stroke-linecap="round"/><path d="M246.27315,17.83881h11.87499" fill="none" stroke="#a6ffb5" stroke-width="3" stroke-linecap="round"/><path d="M234.20906,17.8919c0,-3.2164 2.6074,-5.8238 5.8238,-5.8238c3.2164,0 5.8238,2.6074 5.8238,5.8238c0,3.2164 -2.6074,5.8238 -5.8238,5.8238c-3.2164,0 -5.8238,-2.6074 -5.8238,-5.8238z" fill="none" stroke="#a6ffb5" stroke-width="3" stroke-linecap="butt"/></g><g><path d="M275.47639,17.8919c0,0 0.0078,-0.64309 0.02323,-0.96173c0.5014,-10.35401 9.05495,-18.59474 19.53323,-18.59474c10.54594,0 19.14222,8.3475 19.54193,18.79558c0.00966,0.25243 0.01453,0.76089 0.01453,0.76089h-13.20991c-0.07724,-3.38464 -2.84515,-6.10464 -6.24834,-6.10464c-3.4032,0 -6.1711,2.72001 -6.24834,6.10464z" fill="#d3ffda" stroke="none" stroke-width="0" stroke-linecap="butt"/><path d="M275.4764,17.8919c0,-10.80074 8.75573,-19.55646 19.55646,-19.55646c10.80074,0 19.55646,8.75573 19.55646,19.55646c0,10.80074 -8.75573,19.55646 -19.55646,19.55646c-10.80074,0 -19.55646,-8.75573 -19.55646,-19.55646z" fill="none" stroke="#a6ffb5" stroke-width="3" stroke-linecap="butt"/><path d="M275.47319,17.83881h13.31296" fill="none" stroke="#a6ffb5" stroke-width="3" stroke-linecap="round"/><path d="M301.27315,17.83881h11.87499" fill="none" stroke="#a6ffb5" stroke-width="3" stroke-linecap="round"/><path d="M289.20905,17.8919c0,-3.2164 2.6074,-5.8238 5.8238,-5.8238c3.2164,0 5.8238,2.6074 5.8238,5.8238c0,3.2164 -2.6074,5.8238 -5.8238,5.8238c-3.2164,0 -5.8238,-2.6074 -5.8238,-5.8238z" fill="none" stroke="#a6ffb5" stroke-width="3" stroke-linecap="butt"/></g><g><path d="M330.47639,17.8919c0,0 0.0078,-0.64309 0.02323,-0.96173c0.5014,-10.35401 9.05495,-18.59474 19.53323,-18.59474c10.54594,0 19.14222,8.3475 19.54193,18.79558c0.00966,0.25243 0.01453,0.76089 0.01453,0.76089h-13.20991c-0.07724,-3.38464 -2.84515,-6.10464 -6.24834,-6.10464c-3.4032,0 -6.1711,2.72001 -6.24834,6.10464z" fill="#d3ffda" stroke="none" stroke-width="0" stroke-linecap="butt"/><path d="M330.4764,17.8919c0,-10.80074 8.75573,-19.55646 19.55646,-19.55646c10.80074,0 19.55646,8.75573 19.55646,19.55646c0,10.80074 -8.75573,19.55646 -19.55646,19.55646c-10.80074,0 -19.55646,-8.75573 -19.55646,-19.55646z" fill="none" stroke="#a6ffb5" stroke-width="3" stroke-linecap="butt"/><path d="M330.47319,17.83881h13.31296" fill="none" stroke="#a6ffb5" stroke-width="3" stroke-linecap="round"/><path d="M356.27315,17.83881h11.87499" fill="none" stroke="#a6ffb5" stroke-width="3" stroke-linecap="round"/><path d="M344.20906,17.8919c0,-3.2164 2.6074,-5.8238 5.8238,-5.8238c3.2164,0 5.8238,2.6074 5.8238,5.8238c0,3.2164 -2.6074,5.8238 -5.8238,5.8238c-3.2164,0 -5.8238,-2.6074 -5.8238,-5.8238z" fill="none" stroke="#a6ffb5" stroke-width="3" stroke-linecap="butt"/></g><g><path d="M54.97639,17.8919c0,0 0.0078,-0.64309 0.02323,-0.96173c0.5014,-10.35401 9.05495,-18.59474 19.53323,-18.59474c10.54594,0 19.14222,8.3475 19.54193,18.79558c0.00966,0.25243 0.01453,0.76089 0.01453,0.76089h-13.20991c-0.07724,-3.38464 -2.84515,-6.10464 -6.24834,-6.10464c-3.4032,0 -6.1711,2.72001 -6.24834,6.10464z" fill="#d3ffda" stroke="none" stroke-width="0" stroke-linecap="butt"/><path d="M54.9764,17.8919c0,-10.80074 8.75573,-19.55646 19.55646,-19.55646c10.80074,0 19.55646,8.75573 19.55646,19.55646c0,10.80074 -8.75573,19.55646 -19.55646,19.55646c-10.80074,0 -19.55646,-8.75573 -19.55646,-19.55646z" fill="none" stroke="#a6ffb5" stroke-width="3" stroke-linecap="butt"/><path d="M54.97319,17.83881h13.31296" fill="none" stroke="#a6ffb5" stroke-width="3" stroke-linecap="round"/><path d="M80.77315,17.83881h11.87499" fill="none" stroke="#a6ffb5" stroke-width="3" stroke-linecap="round"/><path d="M68.70906,17.8919c0,-3.2164 2.6074,-5.8238 5.8238,-5.8238c3.2164,0 5.8238,2.6074 5.8238,5.8238c0,3.2164 -2.6074,5.8238 -5.8238,5.8238c-3.2164,0 -5.8238,-2.6074 -5.8238,-5.8238z" fill="none" stroke="#a6ffb5" stroke-width="3" stroke-linecap="butt"/></g><g><path d="M109.97639,17.8919c0,0 0.0078,-0.64309 0.02323,-0.96173c0.5014,-10.35401 9.05495,-18.59474 19.53323,-18.59474c10.54594,0 19.14222,8.3475 19.54193,18.79558c0.00966,0.25243 0.01453,0.76089 0.01453,0.76089h-13.20991c-0.07724,-3.38464 -2.84515,-6.10464 -6.24834,-6.10464c-3.4032,0 -6.1711,2.72001 -6.24834,6.10464z" fill="#d3ffda" stroke="none" stroke-width="0" stroke-linecap="butt"/><path d="M109.9764,17.8919c0,-10.80074 8.75573,-19.55646 19.55646,-19.55646c10.80074,0 19.55646,8.75573 19.55646,19.55646c0,10.80074 -8.75573,19.55646 -19.55646,19.55646c-10.80074,0 -19.55646,-8.75573 -19.55646,-19.55646z" fill="none" stroke="#a6ffb5" stroke-width="3" stroke-linecap="butt"/><path d="M109.97319,17.83881h13.31296" fill="none" stroke="#a6ffb5" stroke-width="3" stroke-linecap="round"/><path d="M135.77315,17.83881h11.87499" fill="none" stroke="#a6ffb5" stroke-width="3" stroke-linecap="round"/><path d="M123.70906,17.8919c0,-3.2164 2.6074,-5.8238 5.8238,-5.8238c3.2164,0 5.8238,2.6074 5.8238,5.8238c0,3.2164 -2.6074,5.8238 -5.8238,5.8238c-3.2164,0 -5.8238,-2.6074 -5.8238,-5.8238z" fill="none" stroke="#a6ffb5" stroke-width="3" stroke-linecap="butt"/></g><g><path d="M164.97639,17.8919c0,0 0.0078,-0.64309 0.02323,-0.96173c0.5014,-10.35401 9.05495,-18.59474 19.53323,-18.59474c10.54594,0 19.14222,8.3475 19.54193,18.79558c0.00966,0.25243 0.01453,0.76089 0.01453,0.76089h-13.20991c-0.07724,-3.38464 -2.84515,-6.10464 -6.24834,-6.10464c-3.4032,0 -6.1711,2.72001 -6.24834,6.10464z" fill="#d3ffda" stroke="none" stroke-width="0" stroke-linecap="butt"/><path d="M164.9764,17.8919c0,-10.80074 8.75573,-19.55646 19.55646,-19.55646c10.80074,0 19.55646,8.75573 19.55646,19.55646c0,10.80074 -8.75573,19.55646 -19.55646,19.55646c-10.80074,0 -19.55646,-8.75573 -19.55646,-19.55646z" fill="none" stroke="#a6ffb5" stroke-width="3" stroke-linecap="butt"/><path d="M164.97319,17.83881h13.31296" fill="none" stroke="#a6ffb5" stroke-width="3" stroke-linecap="round"/><path d="M190.77315,17.83881h11.87499" fill="none" stroke="#a6ffb5" stroke-width="3" stroke-linecap="round"/><path d="M178.70906,17.8919c0,-3.2164 2.6074,-5.8238 5.8238,-5.8238c3.2164,0 5.8238,2.6074 5.8238,5.8238c0,3.2164 -2.6074,5.8238 -5.8238,5.8238c-3.2164,0 -5.8238,-2.6074 -5.8238,-5.8238z" fill="none" stroke="#a6ffb5" stroke-width="3" stroke-linecap="butt"/></g><g><path d="M220.72639,71.8919c0,0 0.0078,-0.64309 0.02323,-0.96173c0.5014,-10.35401 9.05495,-18.59474 19.53323,-18.59474c10.54594,0 19.14222,8.3475 19.54193,18.79558c0.00966,0.25243 0.01453,0.76089 0.01453,0.76089h-13.20991c-0.07724,-3.38464 -2.84515,-6.10464 -6.24834,-6.10464c-3.4032,0 -6.1711,2.72001 -6.24834,6.10464z" fill="#d3ffda" stroke="none" stroke-width="0" stroke-linecap="butt"/><path d="M220.7264,71.8919c0,-10.80074 8.75573,-19.55646 19.55646,-19.55646c10.80074,0 19.55646,8.75573 19.55646,19.55646c0,10.80074 -8.75573,19.55646 -19.55646,19.55646c-10.80074,0 -19.55646,-8.75573 -19.55646,-19.55646z" fill="none" stroke="#a6ffb5" stroke-width="3" stroke-linecap="butt"/><path d="M220.72319,71.83881h13.31296" fill="none" stroke="#a6ffb5" stroke-width="3" stroke-linecap="round"/><path d="M246.52315,71.83881h11.87499" fill="none" stroke="#a6ffb5" stroke-width="3" stroke-linecap="round"/><path d="M234.45906,71.8919c0,-3.2164 2.6074,-5.8238 5.8238,-5.8238c3.2164,0 5.8238,2.6074 5.8238,5.8238c0,3.2164 -2.6074,5.8238 -5.8238,5.8238c-3.2164,0 -5.8238,-2.6074 -5.8238,-5.8238z" fill="none" stroke="#a6ffb5" stroke-width="3" stroke-linecap="butt"/></g><g><path d="M275.72639,71.8919c0,0 0.0078,-0.64309 0.02323,-0.96173c0.5014,-10.35401 9.05495,-18.59474 19.53323,-18.59474c10.54594,0 19.14222,8.3475 19.54193,18.79558c0.00966,0.25243 0.01453,0.76089 0.01453,0.76089h-13.20991c-0.07724,-3.38464 -2.84515,-6.10464 -6.24834,-6.10464c-3.4032,0 -6.1711,2.72001 -6.24834,6.10464z" fill="#d3ffda" stroke="none" stroke-width="0" stroke-linecap="butt"/><path d="M275.7264,71.8919c0,-10.80074 8.75573,-19.55646 19.55646,-19.55646c10.80074,0 19.55646,8.75573 19.55646,19.55646c0,10.80074 -8.75573,19.55646 -19.55646,19.55646c-10.80074,0 -19.55646,-8.75573 -19.55646,-19.55646z" fill="none" stroke="#a6ffb5" stroke-width="3" stroke-linecap="butt"/><path d="M275.72319,71.83881h13.31296" fill="none" stroke="#a6ffb5" stroke-width="3" stroke-linecap="round"/><path d="M301.52315,71.83881h11.87499" fill="none" stroke="#a6ffb5" stroke-width="3" stroke-linecap="round"/><path d="M289.45905,71.8919c0,-3.2164 2.6074,-5.8238 5.8238,-5.8238c3.2164,0 5.8238,2.6074 5.8238,5.8238c0,3.2164 -2.6074,5.8238 -5.8238,5.8238c-3.2164,0 -5.8238,-2.6074 -5.8238,-5.8238z" fill="none" stroke="#a6ffb5" stroke-width="3" stroke-linecap="butt"/></g><g><path d="M330.72639,71.8919c0,0 0.0078,-0.64309 0.02323,-0.96173c0.5014,-10.35401 9.05495,-18.59474 19.53323,-18.59474c10.54594,0 19.14222,8.3475 19.54193,18.79558c0.00966,0.25243 0.01453,0.76089 0.01453,0.76089h-13.20991c-0.07724,-3.38464 -2.84515,-6.10464 -6.24834,-6.10464c-3.4032,0 -6.1711,2.72001 -6.24834,6.10464z" fill="#d3ffda" stroke="none" stroke-width="0" stroke-linecap="butt"/><path d="M330.7264,71.8919c0,-10.80074 8.75573,-19.55646 19.55646,-19.55646c10.80074,0 19.55646,8.75573 19.55646,19.55646c0,10.80074 -8.75573,19.55646 -19.55646,19.55646c-10.80074,0 -19.55646,-8.75573 -19.55646,-19.55646z" fill="none" stroke="#a6ffb5" stroke-width="3" stroke-linecap="butt"/><path d="M330.72319,71.83881h13.31296" fill="none" stroke="#a6ffb5" stroke-width="3" stroke-linecap="round"/><path d="M356.52315,71.83881h11.87499" fill="none" stroke="#a6ffb5" stroke-width="3" stroke-linecap="round"/><path d="M344.45906,71.8919c0,-3.2164 2.6074,-5.8238 5.8238,-5.8238c3.2164,0 5.8238,2.6074 5.8238,5.8238c0,3.2164 -2.6074,5.8238 -5.8238,5.8238c-3.2164,0 -5.8238,-2.6074 -5.8238,-5.8238z" fill="none" stroke="#a6ffb5" stroke-width="3" stroke-linecap="butt"/></g><g><path d="M385.72639,71.8919c0,0 0.0078,-0.64309 0.02323,-0.96173c0.5014,-10.35401 9.05495,-18.59474 19.53323,-18.59474c10.54594,0 19.14222,8.3475 19.54193,18.79558c0.00966,0.25243 0.01453,0.76089 0.01453,0.76089h-13.20991c-0.07724,-3.38464 -2.84515,-6.10464 -6.24834,-6.10464c-3.4032,0 -6.1711,2.72001 -6.24834,6.10464z" fill="#d3ffda" stroke="none" stroke-width="0" stroke-linecap="butt"/><path d="M385.7264,71.8919c0,-10.80074 8.75573,-19.55646 19.55646,-19.55646c10.80074,0 19.55646,8.75573 19.55646,19.55646c0,10.80074 -8.75573,19.55646 -19.55646,19.55646c-10.80074,0 -19.55646,-8.75573 -19.55646,-19.55646z" fill="none" stroke="#a6ffb5" stroke-width="3" stroke-linecap="butt"/><path d="M385.72319,71.83881h13.31296" fill="none" stroke="#a6ffb5" stroke-width="3" stroke-linecap="round"/><path d="M411.52315,71.83881h11.87499" fill="none" stroke="#a6ffb5" stroke-width="3" stroke-linecap="round"/><path d="M399.45906,71.8919c0,-3.2164 2.6074,-5.8238 5.8238,-5.8238c3.2164,0 5.8238,2.6074 5.8238,5.8238c0,3.2164 -2.6074,5.8238 -5.8238,5.8238c-3.2164,0 -5.8238,-2.6074 -5.8238,-5.8238z" fill="none" stroke="#a6ffb5" stroke-width="3" stroke-linecap="butt"/></g><g><path d="M55.22639,71.8919c0,0 0.0078,-0.64309 0.02323,-0.96173c0.5014,-10.35401 9.05495,-18.59474 19.53323,-18.59474c10.54594,0 19.14222,8.3475 19.54193,18.79558c0.00966,0.25243 0.01453,0.76089 0.01453,0.76089h-13.20991c-0.07724,-3.38464 -2.84515,-6.10464 -6.24834,-6.10464c-3.4032,0 -6.1711,2.72001 -6.24834,6.10464z" fill="#d3ffda" stroke="none" stroke-width="0" stroke-linecap="butt"/><path d="M55.2264,71.8919c0,-10.80074 8.75573,-19.55646 19.55646,-19.55646c10.80074,0 19.55646,8.75573 19.55646,19.55646c0,10.80074 -8.75573,19.55646 -19.55646,19.55646c-10.80074,0 -19.55646,-8.75573 -19.55646,-19.55646z" fill="none" stroke="#a6ffb5" stroke-width="3" stroke-linecap="butt"/><path d="M55.22319,71.83881h13.31296" fill="none" stroke="#a6ffb5" stroke-width="3" stroke-linecap="round"/><path d="M81.02315,71.83881h11.87499" fill="none" stroke="#a6ffb5" stroke-width="3" stroke-linecap="round"/><path d="M68.95906,71.8919c0,-3.2164 2.6074,-5.8238 5.8238,-5.8238c3.2164,0 5.8238,2.6074 5.8238,5.8238c0,3.2164 -2.6074,5.8238 -5.8238,5.8238c-3.2164,0 -5.8238,-2.6074 -5.8238,-5.8238z" fill="none" stroke="#a6ffb5" stroke-width="3" stroke-linecap="butt"/></g><g><path d="M110.22639,71.8919c0,0 0.0078,-0.64309 0.02323,-0.96173c0.5014,-10.35401 9.05495,-18.59474 19.53323,-18.59474c10.54594,0 19.14222,8.3475 19.54193,18.79558c0.00966,0.25243 0.01453,0.76089 0.01453,0.76089h-13.20991c-0.07724,-3.38464 -2.84515,-6.10464 -6.24834,-6.10464c-3.4032,0 -6.1711,2.72001 -6.24834,6.10464z" fill="#d3ffda" stroke="none" stroke-width="0" stroke-linecap="butt"/><path d="M110.2264,71.8919c0,-10.80074 8.75573,-19.55646 19.55646,-19.55646c10.80074,0 19.55646,8.75573 19.55646,19.55646c0,10.80074 -8.75573,19.55646 -19.55646,19.55646c-10.80074,0 -19.55646,-8.75573 -19.55646,-19.55646z" fill="none" stroke="#a6ffb5" stroke-width="3" stroke-linecap="butt"/><path d="M110.22319,71.83881h13.31296" fill="none" stroke="#a6ffb5" stroke-width="3" stroke-linecap="round"/><path d="M136.02315,71.83881h11.87499" fill="none" stroke="#a6ffb5" stroke-width="3" stroke-linecap="round"/><path d="M123.95906,71.8919c0,-3.2164 2.6074,-5.8238 5.8238,-5.8238c3.2164,0 5.8238,2.6074 5.8238,5.8238c0,3.2164 -2.6074,5.8238 -5.8238,5.8238c-3.2164,0 -5.8238,-2.6074 -5.8238,-5.8238z" fill="none" stroke="#a6ffb5" stroke-width="3" stroke-linecap="butt"/></g><g><path d="M165.22639,71.8919c0,0 0.0078,-0.64309 0.02323,-0.96173c0.5014,-10.35401 9.05495,-18.59474 19.53323,-18.59474c10.54594,0 19.14222,8.3475 19.54193,18.79558c0.00966,0.25243 0.01453,0.76089 0.01453,0.76089h-13.20991c-0.07724,-3.38464 -2.84515,-6.10464 -6.24834,-6.10464c-3.4032,0 -6.1711,2.72001 -6.24834,6.10464z" fill="#d3ffda" stroke="none" stroke-width="0" stroke-linecap="butt"/><path d="M165.2264,71.8919c0,-10.80074 8.75573,-19.55646 19.55646,-19.55646c10.80074,0 19.55646,8.75573 19.55646,19.55646c0,10.80074 -8.75573,19.55646 -19.55646,19.55646c-10.80074,0 -19.55646,-8.75573 -19.55646,-19.55646z" fill="none" stroke="#a6ffb5" stroke-width="3" stroke-linecap="butt"/><path d="M165.22319,71.83881h13.31296" fill="none" stroke="#a6ffb5" stroke-width="3" stroke-linecap="round"/><path d="M191.02315,71.83881h11.87499" fill="none" stroke="#a6ffb5" stroke-width="3" stroke-linecap="round"/><path d="M178.95906,71.8919c0,-3.2164 2.6074,-5.8238 5.8238,-5.8238c3.2164,0 5.8238,2.6074 5.8238,5.8238c0,3.2164 -2.6074,5.8238 -5.8238,5.8238c-3.2164,0 -5.8238,-2.6074 -5.8238,-5.8238z" fill="none" stroke="#a6ffb5" stroke-width="3" stroke-linecap="butt"/></g><g><path d="M220.60139,-36.1081c0,0 0.0078,-0.64309 0.02323,-0.96173c0.5014,-10.35401 9.05495,-18.59474 19.53323,-18.59474c10.54594,0 19.14222,8.3475 19.54193,18.79558c0.00966,0.25243 0.01453,0.76089 0.01453,0.76089h-13.20991c-0.07724,-3.38464 -2.84515,-6.10464 -6.24834,-6.10464c-3.4032,0 -6.1711,2.72001 -6.24834,6.10464z" fill="#d3ffda" stroke="none" stroke-width="0" stroke-linecap="butt"/><path d="M220.6014,-36.1081c0,-10.80074 8.75573,-19.55646 19.55646,-19.55646c10.80074,0 19.55646,8.75573 19.55646,19.55646c0,10.80074 -8.75573,19.55646 -19.55646,19.55646c-10.80074,0 -19.55646,-8.75573 -19.55646,-19.55646z" fill="none" stroke="#a6ffb5" stroke-width="3" stroke-linecap="butt"/><path d="M220.59819,-36.16119h13.31296" fill="none" stroke="#a6ffb5" stroke-width="3" stroke-linecap="round"/><path d="M246.39815,-36.16119h11.87499" fill="none" stroke="#a6ffb5" stroke-width="3" stroke-linecap="round"/><path d="M234.33406,-36.1081c0,-3.2164 2.6074,-5.8238 5.8238,-5.8238c3.2164,0 5.8238,2.6074 5.8238,5.8238c0,3.2164 -2.6074,5.8238 -5.8238,5.8238c-3.2164,0 -5.8238,-2.6074 -5.8238,-5.8238z" fill="none" stroke="#a6ffb5" stroke-width="3" stroke-linecap="butt"/></g><g><path d="M275.60139,-36.1081c0,0 0.0078,-0.64309 0.02323,-0.96173c0.5014,-10.35401 9.05495,-18.59474 19.53323,-18.59474c10.54594,0 19.14222,8.3475 19.54193,18.79558c0.00966,0.25243 0.01453,0.76089 0.01453,0.76089h-13.20991c-0.07724,-3.38464 -2.84515,-6.10464 -6.24834,-6.10464c-3.4032,0 -6.1711,2.72001 -6.24834,6.10464z" fill="#d3ffda" stroke="none" stroke-width="0" stroke-linecap="butt"/><path d="M275.6014,-36.1081c0,-10.80074 8.75573,-19.55646 19.55646,-19.55646c10.80074,0 19.55646,8.75573 19.55646,19.55646c0,10.80074 -8.75573,19.55646 -19.55646,19.55646c-10.80074,0 -19.55646,-8.75573 -19.55646,-19.55646z" fill="none" stroke="#a6ffb5" stroke-width="3" stroke-linecap="butt"/><path d="M275.59819,-36.16119h13.31296" fill="none" stroke="#a6ffb5" stroke-width="3" stroke-linecap="round"/><path d="M301.39815,-36.16119h11.87499" fill="none" stroke="#a6ffb5" stroke-width="3" stroke-linecap="round"/><path d="M289.33405,-36.1081c0,-3.2164 2.6074,-5.8238 5.8238,-5.8238c3.2164,0 5.8238,2.6074 5.8238,5.8238c0,3.2164 -2.6074,5.8238 -5.8238,5.8238c-3.2164,0 -5.8238,-2.6074 -5.8238,-5.8238z" fill="none" stroke="#a6ffb5" stroke-width="3" stroke-linecap="butt"/></g><g><path d="M330.60139,-36.1081c0,0 0.0078,-0.64309 0.02323,-0.96173c0.5014,-10.35401 9.05495,-18.59474 19.53323,-18.59474c10.54594,0 19.14222,8.3475 19.54193,18.79558c0.00966,0.25243 0.01453,0.76089 0.01453,0.76089h-13.20991c-0.07724,-3.38464 -2.84515,-6.10464 -6.24834,-6.10464c-3.4032,0 -6.1711,2.72001 -6.24834,6.10464z" fill="#d3ffda" stroke="none" stroke-width="0" stroke-linecap="butt"/><path d="M330.6014,-36.1081c0,-10.80074 8.75573,-19.55646 19.55646,-19.55646c10.80074,0 19.55646,8.75573 19.55646,19.55646c0,10.80074 -8.75573,19.55646 -19.55646,19.55646c-10.80074,0 -19.55646,-8.75573 -19.55646,-19.55646z" fill="none" stroke="#a6ffb5" stroke-width="3" stroke-linecap="butt"/><path d="M330.59819,-36.16119h13.31296" fill="none" stroke="#a6ffb5" stroke-width="3" stroke-linecap="round"/><path d="M356.39815,-36.16119h11.87499" fill="none" stroke="#a6ffb5" stroke-width="3" stroke-linecap="round"/><path d="M344.33406,-36.1081c0,-3.2164 2.6074,-5.8238 5.8238,-5.8238c3.2164,0 5.8238,2.6074 5.8238,5.8238c0,3.2164 -2.6074,5.8238 -5.8238,5.8238c-3.2164,0 -5.8238,-2.6074 -5.8238,-5.8238z" fill="none" stroke="#a6ffb5" stroke-width="3" stroke-linecap="butt"/></g><g><path d="M385.60139,-36.1081c0,0 0.0078,-0.64309 0.02323,-0.96173c0.5014,-10.35401 9.05495,-18.59474 19.53323,-18.59474c10.54594,0 19.14222,8.3475 19.54193,18.79558c0.00966,0.25243 0.01453,0.76089 0.01453,0.76089h-13.20991c-0.07724,-3.38464 -2.84515,-6.10464 -6.24834,-6.10464c-3.4032,0 -6.1711,2.72001 -6.24834,6.10464z" fill="#d3ffda" stroke="none" stroke-width="0" stroke-linecap="butt"/><path d="M385.6014,-36.1081c0,-10.80074 8.75573,-19.55646 19.55646,-19.55646c10.80074,0 19.55646,8.75573 19.55646,19.55646c0,10.80074 -8.75573,19.55646 -19.55646,19.55646c-10.80074,0 -19.55646,-8.75573 -19.55646,-19.55646z" fill="none" stroke="#a6ffb5" stroke-width="3" stroke-linecap="butt"/><path d="M385.59819,-36.16119h13.31296" fill="none" stroke="#a6ffb5" stroke-width="3" stroke-linecap="round"/><path d="M411.39815,-36.16119h11.87499" fill="none" stroke="#a6ffb5" stroke-width="3" stroke-linecap="round"/><path d="M399.33406,-36.1081c0,-3.2164 2.6074,-5.8238 5.8238,-5.8238c3.2164,0 5.8238,2.6074 5.8238,5.8238c0,3.2164 -2.6074,5.8238 -5.8238,5.8238c-3.2164,0 -5.8238,-2.6074 -5.8238,-5.8238z" fill="none" stroke="#a6ffb5" stroke-width="3" stroke-linecap="butt"/></g><g><path d="M55.10139,-36.1081c0,0 0.0078,-0.64309 0.02323,-0.96173c0.5014,-10.35401 9.05495,-18.59474 19.53323,-18.59474c10.54594,0 19.14222,8.3475 19.54193,18.79558c0.00966,0.25243 0.01453,0.76089 0.01453,0.76089h-13.20991c-0.07724,-3.38464 -2.84515,-6.10464 -6.24834,-6.10464c-3.4032,0 -6.1711,2.72001 -6.24834,6.10464z" fill="#d3ffda" stroke="none" stroke-width="0" stroke-linecap="butt"/><path d="M55.1014,-36.1081c0,-10.80074 8.75573,-19.55646 19.55646,-19.55646c10.80074,0 19.55646,8.75573 19.55646,19.55646c0,10.80074 -8.75573,19.55646 -19.55646,19.55646c-10.80074,0 -19.55646,-8.75573 -19.55646,-19.55646z" fill="none" stroke="#a6ffb5" stroke-width="3" stroke-linecap="butt"/><path d="M55.09819,-36.16119h13.31296" fill="none" stroke="#a6ffb5" stroke-width="3" stroke-linecap="round"/><path d="M80.89815,-36.16119h11.87499" fill="none" stroke="#a6ffb5" stroke-width="3" stroke-linecap="round"/><path d="M68.83406,-36.1081c0,-3.2164 2.6074,-5.8238 5.8238,-5.8238c3.2164,0 5.8238,2.6074 5.8238,5.8238c0,3.2164 -2.6074,5.8238 -5.8238,5.8238c-3.2164,0 -5.8238,-2.6074 -5.8238,-5.8238z" fill="none" stroke="#a6ffb5" stroke-width="3" stroke-linecap="butt"/></g><g><path d="M110.10139,-36.1081c0,0 0.0078,-0.64309 0.02323,-0.96173c0.5014,-10.35401 9.05495,-18.59474 19.53323,-18.59474c10.54594,0 19.14222,8.3475 19.54193,18.79558c0.00966,0.25243 0.01453,0.76089 0.01453,0.76089h-13.20991c-0.07724,-3.38464 -2.84515,-6.10464 -6.24834,-6.10464c-3.4032,0 -6.1711,2.72001 -6.24834,6.10464z" fill="#d3ffda" stroke="none" stroke-width="0" stroke-linecap="butt"/><path d="M110.1014,-36.1081c0,-10.80074 8.75573,-19.55646 19.55646,-19.55646c10.80074,0 19.55646,8.75573 19.55646,19.55646c0,10.80074 -8.75573,19.55646 -19.55646,19.55646c-10.80074,0 -19.55646,-8.75573 -19.55646,-19.55646z" fill="none" stroke="#a6ffb5" stroke-width="3" stroke-linecap="butt"/><path d="M110.09819,-36.16119h13.31296" fill="none" stroke="#a6ffb5" stroke-width="3" stroke-linecap="round"/><path d="M135.89815,-36.16119h11.87499" fill="none" stroke="#a6ffb5" stroke-width="3" stroke-linecap="round"/><path d="M123.83406,-36.1081c0,-3.2164 2.6074,-5.8238 5.8238,-5.8238c3.2164,0 5.8238,2.6074 5.8238,5.8238c0,3.2164 -2.6074,5.8238 -5.8238,5.8238c-3.2164,0 -5.8238,-2.6074 -5.8238,-5.8238z" fill="none" stroke="#a6ffb5" stroke-width="3" stroke-linecap="butt"/></g><g><path d="M165.10139,-36.1081c0,0 0.0078,-0.64309 0.02323,-0.96173c0.5014,-10.35401 9.05495,-18.59474 19.53323,-18.59474c10.54594,0 19.14222,8.3475 19.54193,18.79558c0.00966,0.25243 0.01453,0.76089 0.01453,0.76089h-13.20991c-0.07724,-3.38464 -2.84515,-6.10464 -6.24834,-6.10464c-3.4032,0 -6.1711,2.72001 -6.24834,6.10464z" fill="#d3ffda" stroke="none" stroke-width="0" stroke-linecap="butt"/><path d="M165.1014,-36.1081c0,-10.80074 8.75573,-19.55646 19.55646,-19.55646c10.80074,0 19.55646,8.75573 19.55646,19.55646c0,10.80074 -8.75573,19.55646 -19.55646,19.55646c-10.80074,0 -19.55646,-8.75573 -19.55646,-19.55646z" fill="none" stroke="#a6ffb5" stroke-width="3" stroke-linecap="butt"/><path d="M165.09819,-36.16119h13.31296" fill="none" stroke="#a6ffb5" stroke-width="3" stroke-linecap="round"/><path d="M190.89815,-36.16119h11.87499" fill="none" stroke="#a6ffb5" stroke-width="3" stroke-linecap="round"/><path d="M178.83406,-36.1081c0,-3.2164 2.6074,-5.8238 5.8238,-5.8238c3.2164,0 5.8238,2.6074 5.8238,5.8238c0,3.2164 -2.6074,5.8238 -5.8238,5.8238c-3.2164,0 -5.8238,-2.6074 -5.8238,-5.8238z" fill="none" stroke="#a6ffb5" stroke-width="3" stroke-linecap="butt"/></g><g><path d="M385.85139,17.8919c0,0 0.0078,-0.64309 0.02323,-0.96173c0.5014,-10.35401 9.05495,-18.59474 19.53323,-18.59474c10.54594,0 19.14222,8.3475 19.54193,18.79558c0.00966,0.25243 0.01453,0.76089 0.01453,0.76089h-13.20991c-0.07724,-3.38464 -2.84515,-6.10464 -6.24834,-6.10464c-3.4032,0 -6.1711,2.72001 -6.24834,6.10464z" fill="#d3ffda" stroke="none" stroke-width="0" stroke-linecap="butt"/><path d="M385.8514,17.8919c0,-10.80074 8.75573,-19.55646 19.55646,-19.55646c10.80074,0 19.55646,8.75573 19.55646,19.55646c0,10.80074 -8.75573,19.55646 -19.55646,19.55646c-10.80074,0 -19.55646,-8.75573 -19.55646,-19.55646z" fill="none" stroke="#a6ffb5" stroke-width="3" stroke-linecap="butt"/><path d="M385.84819,17.83881h13.31296" fill="none" stroke="#a6ffb5" stroke-width="3" stroke-linecap="round"/><path d="M411.64815,17.83881h11.87499" fill="none" stroke="#a6ffb5" stroke-width="3" stroke-linecap="round"/><path d="M399.58406,17.8919c0,-3.2164 2.6074,-5.8238 5.8238,-5.8238c3.2164,0 5.8238,2.6074 5.8238,5.8238c0,3.2164 -2.6074,5.8238 -5.8238,5.8238c-3.2164,0 -5.8238,-2.6074 -5.8238,-5.8238z" fill="none" stroke="#a6ffb5" stroke-width="3" stroke-linecap="butt"/></g><g><path d="M220.53889,125.8919c0,0 0.0078,-0.64309 0.02323,-0.96173c0.5014,-10.35401 9.05495,-18.59474 19.53323,-18.59474c10.54594,0 19.14222,8.3475 19.54193,18.79558c0.00966,0.25243 0.01453,0.76089 0.01453,0.76089h-13.20991c-0.07724,-3.38464 -2.84515,-6.10464 -6.24834,-6.10464c-3.4032,0 -6.1711,2.72001 -6.24834,6.10464z" fill="#d3ffda" stroke="none" stroke-width="0" stroke-linecap="butt"/><path d="M220.5389,125.8919c0,-10.80074 8.75573,-19.55646 19.55646,-19.55646c10.80074,0 19.55646,8.75573 19.55646,19.55646c0,10.80074 -8.75573,19.55646 -19.55646,19.55646c-10.80074,0 -19.55646,-8.75573 -19.55646,-19.55646z" fill="none" stroke="#a6ffb5" stroke-width="3" stroke-linecap="butt"/><path d="M220.53569,125.83881h13.31296" fill="none" stroke="#a6ffb5" stroke-width="3" stroke-linecap="round"/><path d="M246.33565,125.83881h11.87499" fill="none" stroke="#a6ffb5" stroke-width="3" stroke-linecap="round"/><path d="M234.27156,125.8919c0,-3.2164 2.6074,-5.8238 5.8238,-5.8238c3.2164,0 5.8238,2.6074 5.8238,5.8238c0,3.2164 -2.6074,5.8238 -5.8238,5.8238c-3.2164,0 -5.8238,-2.6074 -5.8238,-5.8238z" fill="none" stroke="#a6ffb5" stroke-width="3" stroke-linecap="butt"/></g><g><path d="M275.53889,125.8919c0,0 0.0078,-0.64309 0.02323,-0.96173c0.5014,-10.35401 9.05495,-18.59474 19.53323,-18.59474c10.54594,0 19.14222,8.3475 19.54193,18.79558c0.00966,0.25243 0.01453,0.76089 0.01453,0.76089h-13.20991c-0.07724,-3.38464 -2.84515,-6.10464 -6.24834,-6.10464c-3.4032,0 -6.1711,2.72001 -6.24834,6.10464z" fill="#d3ffda" stroke="none" stroke-width="0" stroke-linecap="butt"/><path d="M275.5389,125.8919c0,-10.80074 8.75573,-19.55646 19.55646,-19.55646c10.80074,0 19.55646,8.75573 19.55646,19.55646c0,10.80074 -8.75573,19.55646 -19.55646,19.55646c-10.80074,0 -19.55646,-8.75573 -19.55646,-19.55646z" fill="none" stroke="#a6ffb5" stroke-width="3" stroke-linecap="butt"/><path d="M275.53569,125.83881h13.31296" fill="none" stroke="#a6ffb5" stroke-width="3" stroke-linecap="round"/><path d="M301.33565,125.83881h11.87499" fill="none" stroke="#a6ffb5" stroke-width="3" stroke-linecap="round"/><path d="M289.27155,125.8919c0,-3.2164 2.6074,-5.8238 5.8238,-5.8238c3.2164,0 5.8238,2.6074 5.8238,5.8238c0,3.2164 -2.6074,5.8238 -5.8238,5.8238c-3.2164,0 -5.8238,-2.6074 -5.8238,-5.8238z" fill="none" stroke="#a6ffb5" stroke-width="3" stroke-linecap="butt"/></g><g><path d="M330.53889,125.8919c0,0 0.0078,-0.64309 0.02323,-0.96173c0.5014,-10.35401 9.05495,-18.59474 19.53323,-18.59474c10.54594,0 19.14222,8.3475 19.54193,18.79558c0.00966,0.25243 0.01453,0.76089 0.01453,0.76089h-13.20991c-0.07724,-3.38464 -2.84515,-6.10464 -6.24834,-6.10464c-3.4032,0 -6.1711,2.72001 -6.24834,6.10464z" fill="#d3ffda" stroke="none" stroke-width="0" stroke-linecap="butt"/><path d="M330.5389,125.8919c0,-10.80074 8.75573,-19.55646 19.55646,-19.55646c10.80074,0 19.55646,8.75573 19.55646,19.55646c0,10.80074 -8.75573,19.55646 -19.55646,19.55646c-10.80074,0 -19.55646,-8.75573 -19.55646,-19.55646z" fill="none" stroke="#a6ffb5" stroke-width="3" stroke-linecap="butt"/><path d="M330.53569,125.83881h13.31296" fill="none" stroke="#a6ffb5" stroke-width="3" stroke-linecap="round"/><path d="M356.33565,125.83881h11.87499" fill="none" stroke="#a6ffb5" stroke-width="3" stroke-linecap="round"/><path d="M344.27156,125.8919c0,-3.2164 2.6074,-5.8238 5.8238,-5.8238c3.2164,0 5.8238,2.6074 5.8238,5.8238c0,3.2164 -2.6074,5.8238 -5.8238,5.8238c-3.2164,0 -5.8238,-2.6074 -5.8238,-5.8238z" fill="none" stroke="#a6ffb5" stroke-width="3" stroke-linecap="butt"/></g><g><path d="M55.03889,125.8919c0,0 0.0078,-0.64309 0.02323,-0.96173c0.5014,-10.35401 9.05495,-18.59474 19.53323,-18.59474c10.54594,0 19.14222,8.3475 19.54193,18.79558c0.00966,0.25243 0.01453,0.76089 0.01453,0.76089h-13.20991c-0.07724,-3.38464 -2.84515,-6.10464 -6.24834,-6.10464c-3.4032,0 -6.1711,2.72001 -6.24834,6.10464z" fill="#d3ffda" stroke="none" stroke-width="0" stroke-linecap="butt"/><path d="M55.0389,125.8919c0,-10.80074 8.75573,-19.55646 19.55646,-19.55646c10.80074,0 19.55646,8.75573 19.55646,19.55646c0,10.80074 -8.75573,19.55646 -19.55646,19.55646c-10.80074,0 -19.55646,-8.75573 -19.55646,-19.55646z" fill="none" stroke="#a6ffb5" stroke-width="3" stroke-linecap="butt"/><path d="M55.03569,125.83881h13.31296" fill="none" stroke="#a6ffb5" stroke-width="3" stroke-linecap="round"/><path d="M80.83565,125.83881h11.87499" fill="none" stroke="#a6ffb5" stroke-width="3" stroke-linecap="round"/><path d="M68.77156,125.8919c0,-3.2164 2.6074,-5.8238 5.8238,-5.8238c3.2164,0 5.8238,2.6074 5.8238,5.8238c0,3.2164 -2.6074,5.8238 -5.8238,5.8238c-3.2164,0 -5.8238,-2.6074 -5.8238,-5.8238z" fill="none" stroke="#a6ffb5" stroke-width="3" stroke-linecap="butt"/></g><g><path d="M110.03889,125.8919c0,0 0.0078,-0.64309 0.02323,-0.96173c0.5014,-10.35401 9.05495,-18.59474 19.53323,-18.59474c10.54594,0 19.14222,8.3475 19.54193,18.79558c0.00966,0.25243 0.01453,0.76089 0.01453,0.76089h-13.20991c-0.07724,-3.38464 -2.84515,-6.10464 -6.24834,-6.10464c-3.4032,0 -6.1711,2.72001 -6.24834,6.10464z" fill="#d3ffda" stroke="none" stroke-width="0" stroke-linecap="butt"/><path d="M110.0389,125.8919c0,-10.80074 8.75573,-19.55646 19.55646,-19.55646c10.80074,0 19.55646,8.75573 19.55646,19.55646c0,10.80074 -8.75573,19.55646 -19.55646,19.55646c-10.80074,0 -19.55646,-8.75573 -19.55646,-19.55646z" fill="none" stroke="#a6ffb5" stroke-width="3" stroke-linecap="butt"/><path d="M110.03569,125.83881h13.31296" fill="none" stroke="#a6ffb5" stroke-width="3" stroke-linecap="round"/><path d="M135.83565,125.83881h11.87499" fill="none" stroke="#a6ffb5" stroke-width="3" stroke-linecap="round"/><path d="M123.77156,125.8919c0,-3.2164 2.6074,-5.8238 5.8238,-5.8238c3.2164,0 5.8238,2.6074 5.8238,5.8238c0,3.2164 -2.6074,5.8238 -5.8238,5.8238c-3.2164,0 -5.8238,-2.6074 -5.8238,-5.8238z" fill="none" stroke="#a6ffb5" stroke-width="3" stroke-linecap="butt"/></g><g><path d="M165.03889,125.8919c0,0 0.0078,-0.64309 0.02323,-0.96173c0.5014,-10.35401 9.05495,-18.59474 19.53323,-18.59474c10.54594,0 19.14222,8.3475 19.54193,18.79558c0.00966,0.25243 0.01453,0.76089 0.01453,0.76089h-13.20991c-0.07724,-3.38464 -2.84515,-6.10464 -6.24834,-6.10464c-3.4032,0 -6.1711,2.72001 -6.24834,6.10464z" fill="#d3ffda" stroke="none" stroke-width="0" stroke-linecap="butt"/><path d="M165.0389,125.8919c0,-10.80074 8.75573,-19.55646 19.55646,-19.55646c10.80074,0 19.55646,8.75573 19.55646,19.55646c0,10.80074 -8.75573,19.55646 -19.55646,19.55646c-10.80074,0 -19.55646,-8.75573 -19.55646,-19.55646z" fill="none" stroke="#a6ffb5" stroke-width="3" stroke-linecap="butt"/><path d="M165.03569,125.83881h13.31296" fill="none" stroke="#a6ffb5" stroke-width="3" stroke-linecap="round"/><path d="M190.83565,125.83881h11.87499" fill="none" stroke="#a6ffb5" stroke-width="3" stroke-linecap="round"/><path d="M178.77156,125.8919c0,-3.2164 2.6074,-5.8238 5.8238,-5.8238c3.2164,0 5.8238,2.6074 5.8238,5.8238c0,3.2164 -2.6074,5.8238 -5.8238,5.8238c-3.2164,0 -5.8238,-2.6074 -5.8238,-5.8238z" fill="none" stroke="#a6ffb5" stroke-width="3" stroke-linecap="butt"/></g><g><path d="M220.78889,179.8919c0,0 0.0078,-0.64309 0.02323,-0.96173c0.5014,-10.35401 9.05495,-18.59474 19.53323,-18.59474c10.54594,0 19.14222,8.3475 19.54193,18.79558c0.00966,0.25243 0.01453,0.76089 0.01453,0.76089h-13.20991c-0.07724,-3.38464 -2.84515,-6.10464 -6.24834,-6.10464c-3.4032,0 -6.1711,2.72001 -6.24834,6.10464z" fill="#d3ffda" stroke="none" stroke-width="0" stroke-linecap="butt"/><path d="M220.7889,179.8919c0,-10.80074 8.75573,-19.55646 19.55646,-19.55646c10.80074,0 19.55646,8.75573 19.55646,19.55646c0,10.80074 -8.75573,19.55646 -19.55646,19.55646c-10.80074,0 -19.55646,-8.75573 -19.55646,-19.55646z" fill="none" stroke="#a6ffb5" stroke-width="3" stroke-linecap="butt"/><path d="M220.78569,179.83881h13.31296" fill="none" stroke="#a6ffb5" stroke-width="3" stroke-linecap="round"/><path d="M246.58565,179.83881h11.87499" fill="none" stroke="#a6ffb5" stroke-width="3" stroke-linecap="round"/><path d="M234.52156,179.8919c0,-3.2164 2.6074,-5.8238 5.8238,-5.8238c3.2164,0 5.8238,2.6074 5.8238,5.8238c0,3.2164 -2.6074,5.8238 -5.8238,5.8238c-3.2164,0 -5.8238,-2.6074 -5.8238,-5.8238z" fill="none" stroke="#a6ffb5" stroke-width="3" stroke-linecap="butt"/></g><g><path d="M275.78889,179.8919c0,0 0.0078,-0.64309 0.02323,-0.96173c0.5014,-10.35401 9.05495,-18.59474 19.53323,-18.59474c10.54594,0 19.14222,8.3475 19.54193,18.79558c0.00966,0.25243 0.01453,0.76089 0.01453,0.76089h-13.20991c-0.07724,-3.38464 -2.84515,-6.10464 -6.24834,-6.10464c-3.4032,0 -6.1711,2.72001 -6.24834,6.10464z" fill="#d3ffda" stroke="none" stroke-width="0" stroke-linecap="butt"/><path d="M275.7889,179.8919c0,-10.80074 8.75573,-19.55646 19.55646,-19.55646c10.80074,0 19.55646,8.75573 19.55646,19.55646c0,10.80074 -8.75573,19.55646 -19.55646,19.55646c-10.80074,0 -19.55646,-8.75573 -19.55646,-19.55646z" fill="none" stroke="#a6ffb5" stroke-width="3" stroke-linecap="butt"/><path d="M275.78569,179.83881h13.31296" fill="none" stroke="#a6ffb5" stroke-width="3" stroke-linecap="round"/><path d="M301.58565,179.83881h11.87499" fill="none" stroke="#a6ffb5" stroke-width="3" stroke-linecap="round"/><path d="M289.52155,179.8919c0,-3.2164 2.6074,-5.8238 5.8238,-5.8238c3.2164,0 5.8238,2.6074 5.8238,5.8238c0,3.2164 -2.6074,5.8238 -5.8238,5.8238c-3.2164,0 -5.8238,-2.6074 -5.8238,-5.8238z" fill="none" stroke="#a6ffb5" stroke-width="3" stroke-linecap="butt"/></g><g><path d="M330.78889,179.8919c0,0 0.0078,-0.64309 0.02323,-0.96173c0.5014,-10.35401 9.05495,-18.59474 19.53323,-18.59474c10.54594,0 19.14222,8.3475 19.54193,18.79558c0.00966,0.25243 0.01453,0.76089 0.01453,0.76089h-13.20991c-0.07724,-3.38464 -2.84515,-6.10464 -6.24834,-6.10464c-3.4032,0 -6.1711,2.72001 -6.24834,6.10464z" fill="#d3ffda" stroke="none" stroke-width="0" stroke-linecap="butt"/><path d="M330.7889,179.8919c0,-10.80074 8.75573,-19.55646 19.55646,-19.55646c10.80074,0 19.55646,8.75573 19.55646,19.55646c0,10.80074 -8.75573,19.55646 -19.55646,19.55646c-10.80074,0 -19.55646,-8.75573 -19.55646,-19.55646z" fill="none" stroke="#a6ffb5" stroke-width="3" stroke-linecap="butt"/><path d="M330.78569,179.83881h13.31296" fill="none" stroke="#a6ffb5" stroke-width="3" stroke-linecap="round"/><path d="M356.58565,179.83881h11.87499" fill="none" stroke="#a6ffb5" stroke-width="3" stroke-linecap="round"/><path d="M344.52156,179.8919c0,-3.2164 2.6074,-5.8238 5.8238,-5.8238c3.2164,0 5.8238,2.6074 5.8238,5.8238c0,3.2164 -2.6074,5.8238 -5.8238,5.8238c-3.2164,0 -5.8238,-2.6074 -5.8238,-5.8238z" fill="none" stroke="#a6ffb5" stroke-width="3" stroke-linecap="butt"/></g><g><path d="M385.78889,179.8919c0,0 0.0078,-0.64309 0.02323,-0.96173c0.5014,-10.35401 9.05495,-18.59474 19.53323,-18.59474c10.54594,0 19.14222,8.3475 19.54193,18.79558c0.00966,0.25243 0.01453,0.76089 0.01453,0.76089h-13.20991c-0.07724,-3.38464 -2.84515,-6.10464 -6.24834,-6.10464c-3.4032,0 -6.1711,2.72001 -6.24834,6.10464z" fill="#d3ffda" stroke="none" stroke-width="0" stroke-linecap="butt"/><path d="M385.7889,179.8919c0,-10.80074 8.75573,-19.55646 19.55646,-19.55646c10.80074,0 19.55646,8.75573 19.55646,19.55646c0,10.80074 -8.75573,19.55646 -19.55646,19.55646c-10.80074,0 -19.55646,-8.75573 -19.55646,-19.55646z" fill="none" stroke="#a6ffb5" stroke-width="3" stroke-linecap="butt"/><path d="M385.78569,179.83881h13.31296" fill="none" stroke="#a6ffb5" stroke-width="3" stroke-linecap="round"/><path d="M411.58565,179.83881h11.87499" fill="none" stroke="#a6ffb5" stroke-width="3" stroke-linecap="round"/><path d="M399.52156,179.8919c0,-3.2164 2.6074,-5.8238 5.8238,-5.8238c3.2164,0 5.8238,2.6074 5.8238,5.8238c0,3.2164 -2.6074,5.8238 -5.8238,5.8238c-3.2164,0 -5.8238,-2.6074 -5.8238,-5.8238z" fill="none" stroke="#a6ffb5" stroke-width="3" stroke-linecap="butt"/></g><g><path d="M55.28889,179.8919c0,0 0.0078,-0.64309 0.02323,-0.96173c0.5014,-10.35401 9.05495,-18.59474 19.53323,-18.59474c10.54594,0 19.14222,8.3475 19.54193,18.79558c0.00966,0.25243 0.01453,0.76089 0.01453,0.76089h-13.20991c-0.07724,-3.38464 -2.84515,-6.10464 -6.24834,-6.10464c-3.4032,0 -6.1711,2.72001 -6.24834,6.10464z" fill="#d3ffda" stroke="none" stroke-width="0" stroke-linecap="butt"/><path d="M55.2889,179.8919c0,-10.80074 8.75573,-19.55646 19.55646,-19.55646c10.80074,0 19.55646,8.75573 19.55646,19.55646c0,10.80074 -8.75573,19.55646 -19.55646,19.55646c-10.80074,0 -19.55646,-8.75573 -19.55646,-19.55646z" fill="none" stroke="#a6ffb5" stroke-width="3" stroke-linecap="butt"/><path d="M55.28569,179.83881h13.31296" fill="none" stroke="#a6ffb5" stroke-width="3" stroke-linecap="round"/><path d="M81.08565,179.83881h11.87499" fill="none" stroke="#a6ffb5" stroke-width="3" stroke-linecap="round"/><path d="M69.02156,179.8919c0,-3.2164 2.6074,-5.8238 5.8238,-5.8238c3.2164,0 5.8238,2.6074 5.8238,5.8238c0,3.2164 -2.6074,5.8238 -5.8238,5.8238c-3.2164,0 -5.8238,-2.6074 -5.8238,-5.8238z" fill="none" stroke="#a6ffb5" stroke-width="3" stroke-linecap="butt"/></g><g><path d="M110.28889,179.8919c0,0 0.0078,-0.64309 0.02323,-0.96173c0.5014,-10.35401 9.05495,-18.59474 19.53323,-18.59474c10.54594,0 19.14222,8.3475 19.54193,18.79558c0.00966,0.25243 0.01453,0.76089 0.01453,0.76089h-13.20991c-0.07724,-3.38464 -2.84515,-6.10464 -6.24834,-6.10464c-3.4032,0 -6.1711,2.72001 -6.24834,6.10464z" fill="#d3ffda" stroke="none" stroke-width="0" stroke-linecap="butt"/><path d="M110.2889,179.8919c0,-10.80074 8.75573,-19.55646 19.55646,-19.55646c10.80074,0 19.55646,8.75573 19.55646,19.55646c0,10.80074 -8.75573,19.55646 -19.55646,19.55646c-10.80074,0 -19.55646,-8.75573 -19.55646,-19.55646z" fill="none" stroke="#a6ffb5" stroke-width="3" stroke-linecap="butt"/><path d="M110.28569,179.83881h13.31296" fill="none" stroke="#a6ffb5" stroke-width="3" stroke-linecap="round"/><path d="M136.08565,179.83881h11.87499" fill="none" stroke="#a6ffb5" stroke-width="3" stroke-linecap="round"/><path d="M124.02156,179.8919c0,-3.2164 2.6074,-5.8238 5.8238,-5.8238c3.2164,0 5.8238,2.6074 5.8238,5.8238c0,3.2164 -2.6074,5.8238 -5.8238,5.8238c-3.2164,0 -5.8238,-2.6074 -5.8238,-5.8238z" fill="none" stroke="#a6ffb5" stroke-width="3" stroke-linecap="butt"/></g><g><path d="M165.28889,179.8919c0,0 0.0078,-0.64309 0.02323,-0.96173c0.5014,-10.35401 9.05495,-18.59474 19.53323,-18.59474c10.54594,0 19.14222,8.3475 19.54193,18.79558c0.00966,0.25243 0.01453,0.76089 0.01453,0.76089h-13.20991c-0.07724,-3.38464 -2.84515,-6.10464 -6.24834,-6.10464c-3.4032,0 -6.1711,2.72001 -6.24834,6.10464z" fill="#d3ffda" stroke="none" stroke-width="0" stroke-linecap="butt"/><path d="M165.2889,179.8919c0,-10.80074 8.75573,-19.55646 19.55646,-19.55646c10.80074,0 19.55646,8.75573 19.55646,19.55646c0,10.80074 -8.75573,19.55646 -19.55646,19.55646c-10.80074,0 -19.55646,-8.75573 -19.55646,-19.55646z" fill="none" stroke="#a6ffb5" stroke-width="3" stroke-linecap="butt"/><path d="M165.28569,179.83881h13.31296" fill="none" stroke="#a6ffb5" stroke-width="3" stroke-linecap="round"/><path d="M191.08565,179.83881h11.87499" fill="none" stroke="#a6ffb5" stroke-width="3" stroke-linecap="round"/><path d="M179.02156,179.8919c0,-3.2164 2.6074,-5.8238 5.8238,-5.8238c3.2164,0 5.8238,2.6074 5.8238,5.8238c0,3.2164 -2.6074,5.8238 -5.8238,5.8238c-3.2164,0 -5.8238,-2.6074 -5.8238,-5.8238z" fill="none" stroke="#a6ffb5" stroke-width="3" stroke-linecap="butt"/></g><g><path d="M385.91389,125.8919c0,0 0.0078,-0.64309 0.02323,-0.96173c0.5014,-10.35401 9.05495,-18.59474 19.53323,-18.59474c10.54594,0 19.14222,8.3475 19.54193,18.79558c0.00966,0.25243 0.01453,0.76089 0.01453,0.76089h-13.20991c-0.07724,-3.38464 -2.84515,-6.10464 -6.24834,-6.10464c-3.4032,0 -6.1711,2.72001 -6.24834,6.10464z" fill="#d3ffda" stroke="none" stroke-width="0" stroke-linecap="butt"/><path d="M385.9139,125.8919c0,-10.80074 8.75573,-19.55646 19.55646,-19.55646c10.80074,0 19.55646,8.75573 19.55646,19.55646c0,10.80074 -8.75573,19.55646 -19.55646,19.55646c-10.80074,0 -19.55646,-8.75573 -19.55646,-19.55646z" fill="none" stroke="#a6ffb5" stroke-width="3" stroke-linecap="butt"/><path d="M385.91069,125.83881h13.31296" fill="none" stroke="#a6ffb5" stroke-width="3" stroke-linecap="round"/><path d="M411.71065,125.83881h11.87499" fill="none" stroke="#a6ffb5" stroke-width="3" stroke-linecap="round"/><path d="M399.64656,125.8919c0,-3.2164 2.6074,-5.8238 5.8238,-5.8238c3.2164,0 5.8238,2.6074 5.8238,5.8238c0,3.2164 -2.6074,5.8238 -5.8238,5.8238c-3.2164,0 -5.8238,-2.6074 -5.8238,-5.8238z" fill="none" stroke="#a6ffb5" stroke-width="3" stroke-linecap="butt"/></g><g><path d="M220.47639,234.10811c0,0 0.0078,-0.64309 0.02323,-0.96173c0.5014,-10.35401 9.05495,-18.59474 19.53323,-18.59474c10.54594,0 19.14222,8.3475 19.54193,18.79558c0.00966,0.25243 0.01453,0.76089 0.01453,0.76089h-13.20991c-0.07724,-3.38464 -2.84515,-6.10464 -6.24834,-6.10464c-3.4032,0 -6.1711,2.72001 -6.24834,6.10464z" fill="#d3ffda" stroke="none" stroke-width="0" stroke-linecap="butt"/><path d="M220.4764,234.10811c0,-10.80074 8.75573,-19.55646 19.55646,-19.55646c10.80074,0 19.55646,8.75573 19.55646,19.55646c0,10.80074 -8.75573,19.55646 -19.55646,19.55646c-10.80074,0 -19.55646,-8.75573 -19.55646,-19.55646z" fill="none" stroke="#a6ffb5" stroke-width="3" stroke-linecap="butt"/><path d="M220.47319,234.05502h13.31296" fill="none" stroke="#a6ffb5" stroke-width="3" stroke-linecap="round"/><path d="M246.27315,234.05502h11.87499" fill="none" stroke="#a6ffb5" stroke-width="3" stroke-linecap="round"/><path d="M234.20906,234.10811c0,-3.2164 2.6074,-5.8238 5.8238,-5.8238c3.2164,0 5.8238,2.6074 5.8238,5.8238c0,3.2164 -2.6074,5.8238 -5.8238,5.8238c-3.2164,0 -5.8238,-2.6074 -5.8238,-5.8238z" fill="none" stroke="#a6ffb5" stroke-width="3" stroke-linecap="butt"/></g><g><path d="M275.47639,234.10811c0,0 0.0078,-0.64309 0.02323,-0.96173c0.5014,-10.35401 9.05495,-18.59474 19.53323,-18.59474c10.54594,0 19.14222,8.3475 19.54193,18.79558c0.00966,0.25243 0.01453,0.76089 0.01453,0.76089h-13.20991c-0.07724,-3.38464 -2.84515,-6.10464 -6.24834,-6.10464c-3.4032,0 -6.1711,2.72001 -6.24834,6.10464z" fill="#d3ffda" stroke="none" stroke-width="0" stroke-linecap="butt"/><path d="M275.4764,234.10811c0,-10.80074 8.75573,-19.55646 19.55646,-19.55646c10.80074,0 19.55646,8.75573 19.55646,19.55646c0,10.80074 -8.75573,19.55646 -19.55646,19.55646c-10.80074,0 -19.55646,-8.75573 -19.55646,-19.55646z" fill="none" stroke="#a6ffb5" stroke-width="3" stroke-linecap="butt"/><path d="M275.47319,234.05502h13.31296" fill="none" stroke="#a6ffb5" stroke-width="3" stroke-linecap="round"/><path d="M301.27315,234.05502h11.87499" fill="none" stroke="#a6ffb5" stroke-width="3" stroke-linecap="round"/><path d="M289.20905,234.10811c0,-3.2164 2.6074,-5.8238 5.8238,-5.8238c3.2164,0 5.8238,2.6074 5.8238,5.8238c0,3.2164 -2.6074,5.8238 -5.8238,5.8238c-3.2164,0 -5.8238,-2.6074 -5.8238,-5.8238z" fill="none" stroke="#a6ffb5" stroke-width="3" stroke-linecap="butt"/></g><g><path d="M330.47639,234.10811c0,0 0.0078,-0.64309 0.02323,-0.96173c0.5014,-10.35401 9.05495,-18.59474 19.53323,-18.59474c10.54594,0 19.14222,8.3475 19.54193,18.79558c0.00966,0.25243 0.01453,0.76089 0.01453,0.76089h-13.20991c-0.07724,-3.38464 -2.84515,-6.10464 -6.24834,-6.10464c-3.4032,0 -6.1711,2.72001 -6.24834,6.10464z" fill="#d3ffda" stroke="none" stroke-width="0" stroke-linecap="butt"/><path d="M330.4764,234.10811c0,-10.80074 8.75573,-19.55646 19.55646,-19.55646c10.80074,0 19.55646,8.75573 19.55646,19.55646c0,10.80074 -8.75573,19.55646 -19.55646,19.55646c-10.80074,0 -19.55646,-8.75573 -19.55646,-19.55646z" fill="none" stroke="#a6ffb5" stroke-width="3" stroke-linecap="butt"/><path d="M330.47319,234.05502h13.31296" fill="none" stroke="#a6ffb5" stroke-width="3" stroke-linecap="round"/><path d="M356.27315,234.05502h11.87499" fill="none" stroke="#a6ffb5" stroke-width="3" stroke-linecap="round"/><path d="M344.20906,234.10811c0,-3.2164 2.6074,-5.8238 5.8238,-5.8238c3.2164,0 5.8238,2.6074 5.8238,5.8238c0,3.2164 -2.6074,5.8238 -5.8238,5.8238c-3.2164,0 -5.8238,-2.6074 -5.8238,-5.8238z" fill="none" stroke="#a6ffb5" stroke-width="3" stroke-linecap="butt"/></g><g><path d="M54.97639,234.10811c0,0 0.0078,-0.64309 0.02323,-0.96173c0.5014,-10.35401 9.05495,-18.59474 19.53323,-18.59474c10.54594,0 19.14222,8.3475 19.54193,18.79558c0.00966,0.25243 0.01453,0.76089 0.01453,0.76089h-13.20991c-0.07724,-3.38464 -2.84515,-6.10464 -6.24834,-6.10464c-3.4032,0 -6.1711,2.72001 -6.24834,6.10464z" fill="#d3ffda" stroke="none" stroke-width="0" stroke-linecap="butt"/><path d="M54.9764,234.10811c0,-10.80074 8.75573,-19.55646 19.55646,-19.55646c10.80074,0 19.55646,8.75573 19.55646,19.55646c0,10.80074 -8.75573,19.55646 -19.55646,19.55646c-10.80074,0 -19.55646,-8.75573 -19.55646,-19.55646z" fill="none" stroke="#a6ffb5" stroke-width="3" stroke-linecap="butt"/><path d="M54.97319,234.05502h13.31296" fill="none" stroke="#a6ffb5" stroke-width="3" stroke-linecap="round"/><path d="M80.77315,234.05502h11.87499" fill="none" stroke="#a6ffb5" stroke-width="3" stroke-linecap="round"/><path d="M68.70906,234.10811c0,-3.2164 2.6074,-5.8238 5.8238,-5.8238c3.2164,0 5.8238,2.6074 5.8238,5.8238c0,3.2164 -2.6074,5.8238 -5.8238,5.8238c-3.2164,0 -5.8238,-2.6074 -5.8238,-5.8238z" fill="none" stroke="#a6ffb5" stroke-width="3" stroke-linecap="butt"/></g><g><path d="M109.97639,234.10811c0,0 0.0078,-0.64309 0.02323,-0.96173c0.5014,-10.35401 9.05495,-18.59474 19.53323,-18.59474c10.54594,0 19.14222,8.3475 19.54193,18.79558c0.00966,0.25243 0.01453,0.76089 0.01453,0.76089h-13.20991c-0.07724,-3.38464 -2.84515,-6.10464 -6.24834,-6.10464c-3.4032,0 -6.1711,2.72001 -6.24834,6.10464z" fill="#d3ffda" stroke="none" stroke-width="0" stroke-linecap="butt"/><path d="M109.9764,234.10811c0,-10.80074 8.75573,-19.55646 19.55646,-19.55646c10.80074,0 19.55646,8.75573 19.55646,19.55646c0,10.80074 -8.75573,19.55646 -19.55646,19.55646c-10.80074,0 -19.55646,-8.75573 -19.55646,-19.55646z" fill="none" stroke="#a6ffb5" stroke-width="3" stroke-linecap="butt"/><path d="M109.97319,234.05502h13.31296" fill="none" stroke="#a6ffb5" stroke-width="3" stroke-linecap="round"/><path d="M135.77315,234.05502h11.87499" fill="none" stroke="#a6ffb5" stroke-width="3" stroke-linecap="round"/><path d="M123.70906,234.10811c0,-3.2164 2.6074,-5.8238 5.8238,-5.8238c3.2164,0 5.8238,2.6074 5.8238,5.8238c0,3.2164 -2.6074,5.8238 -5.8238,5.8238c-3.2164,0 -5.8238,-2.6074 -5.8238,-5.8238z" fill="none" stroke="#a6ffb5" stroke-width="3" stroke-linecap="butt"/></g><g><path d="M164.97639,234.10811c0,0 0.0078,-0.64309 0.02323,-0.96173c0.5014,-10.35401 9.05495,-18.59474 19.53323,-18.59474c10.54594,0 19.14222,8.3475 19.54193,18.79558c0.00966,0.25243 0.01453,0.76089 0.01453,0.76089h-13.20991c-0.07724,-3.38464 -2.84515,-6.10464 -6.24834,-6.10464c-3.4032,0 -6.1711,2.72001 -6.24834,6.10464z" fill="#d3ffda" stroke="none" stroke-width="0" stroke-linecap="butt"/><path d="M164.9764,234.10811c0,-10.80074 8.75573,-19.55646 19.55646,-19.55646c10.80074,0 19.55646,8.75573 19.55646,19.55646c0,10.80074 -8.75573,19.55646 -19.55646,19.55646c-10.80074,0 -19.55646,-8.75573 -19.55646,-19.55646z" fill="none" stroke="#a6ffb5" stroke-width="3" stroke-linecap="butt"/><path d="M164.97319,234.05502h13.31296" fill="none" stroke="#a6ffb5" stroke-width="3" stroke-linecap="round"/><path d="M190.77315,234.05502h11.87499" fill="none" stroke="#a6ffb5" stroke-width="3" stroke-linecap="round"/><path d="M178.70906,234.10811c0,-3.2164 2.6074,-5.8238 5.8238,-5.8238c3.2164,0 5.8238,2.6074 5.8238,5.8238c0,3.2164 -2.6074,5.8238 -5.8238,5.8238c-3.2164,0 -5.8238,-2.6074 -5.8238,-5.8238z" fill="none" stroke="#a6ffb5" stroke-width="3" stroke-linecap="butt"/></g><g><path d="M220.72639,288.10811c0,0 0.0078,-0.64309 0.02323,-0.96173c0.5014,-10.35401 9.05495,-18.59474 19.53323,-18.59474c10.54594,0 19.14222,8.3475 19.54193,18.79558c0.00966,0.25243 0.01453,0.76089 0.01453,0.76089h-13.20991c-0.07724,-3.38464 -2.84515,-6.10464 -6.24834,-6.10464c-3.4032,0 -6.1711,2.72001 -6.24834,6.10464z" fill="#d3ffda" stroke="none" stroke-width="0" stroke-linecap="butt"/><path d="M220.7264,288.10811c0,-10.80074 8.75573,-19.55646 19.55646,-19.55646c10.80074,0 19.55646,8.75573 19.55646,19.55646c0,10.80074 -8.75573,19.55646 -19.55646,19.55646c-10.80074,0 -19.55646,-8.75573 -19.55646,-19.55646z" fill="none" stroke="#a6ffb5" stroke-width="3" stroke-linecap="butt"/><path d="M220.72319,288.05502h13.31296" fill="none" stroke="#a6ffb5" stroke-width="3" stroke-linecap="round"/><path d="M246.52315,288.05502h11.87499" fill="none" stroke="#a6ffb5" stroke-width="3" stroke-linecap="round"/><path d="M234.45906,288.10811c0,-3.2164 2.6074,-5.8238 5.8238,-5.8238c3.2164,0 5.8238,2.6074 5.8238,5.8238c0,3.2164 -2.6074,5.8238 -5.8238,5.8238c-3.2164,0 -5.8238,-2.6074 -5.8238,-5.8238z" fill="none" stroke="#a6ffb5" stroke-width="3" stroke-linecap="butt"/></g><g><path d="M275.72639,288.10811c0,0 0.0078,-0.64309 0.02323,-0.96173c0.5014,-10.35401 9.05495,-18.59474 19.53323,-18.59474c10.54594,0 19.14222,8.3475 19.54193,18.79558c0.00966,0.25243 0.01453,0.76089 0.01453,0.76089h-13.20991c-0.07724,-3.38464 -2.84515,-6.10464 -6.24834,-6.10464c-3.4032,0 -6.1711,2.72001 -6.24834,6.10464z" fill="#d3ffda" stroke="none" stroke-width="0" stroke-linecap="butt"/><path d="M275.7264,288.10811c0,-10.80074 8.75573,-19.55646 19.55646,-19.55646c10.80074,0 19.55646,8.75573 19.55646,19.55646c0,10.80074 -8.75573,19.55646 -19.55646,19.55646c-10.80074,0 -19.55646,-8.75573 -19.55646,-19.55646z" fill="none" stroke="#a6ffb5" stroke-width="3" stroke-linecap="butt"/><path d="M275.72319,288.05502h13.31296" fill="none" stroke="#a6ffb5" stroke-width="3" stroke-linecap="round"/><path d="M301.52315,288.05502h11.87499" fill="none" stroke="#a6ffb5" stroke-width="3" stroke-linecap="round"/><path d="M289.45905,288.10811c0,-3.2164 2.6074,-5.8238 5.8238,-5.8238c3.2164,0 5.8238,2.6074 5.8238,5.8238c0,3.2164 -2.6074,5.8238 -5.8238,5.8238c-3.2164,0 -5.8238,-2.6074 -5.8238,-5.8238z" fill="none" stroke="#a6ffb5" stroke-width="3" stroke-linecap="butt"/></g><g><path d="M330.72639,288.10811c0,0 0.0078,-0.64309 0.02323,-0.96173c0.5014,-10.35401 9.05495,-18.59474 19.53323,-18.59474c10.54594,0 19.14222,8.3475 19.54193,18.79558c0.00966,0.25243 0.01453,0.76089 0.01453,0.76089h-13.20991c-0.07724,-3.38464 -2.84515,-6.10464 -6.24834,-6.10464c-3.4032,0 -6.1711,2.72001 -6.24834,6.10464z" fill="#d3ffda" stroke="none" stroke-width="0" stroke-linecap="butt"/><path d="M330.7264,288.10811c0,-10.80074 8.75573,-19.55646 19.55646,-19.55646c10.80074,0 19.55646,8.75573 19.55646,19.55646c0,10.80074 -8.75573,19.55646 -19.55646,19.55646c-10.80074,0 -19.55646,-8.75573 -19.55646,-19.55646z" fill="none" stroke="#a6ffb5" stroke-width="3" stroke-linecap="butt"/><path d="M330.72319,288.05502h13.31296" fill="none" stroke="#a6ffb5" stroke-width="3" stroke-linecap="round"/><path d="M356.52315,288.05502h11.87499" fill="none" stroke="#a6ffb5" stroke-width="3" stroke-linecap="round"/><path d="M344.45906,288.10811c0,-3.2164 2.6074,-5.8238 5.8238,-5.8238c3.2164,0 5.8238,2.6074 5.8238,5.8238c0,3.2164 -2.6074,5.8238 -5.8238,5.8238c-3.2164,0 -5.8238,-2.6074 -5.8238,-5.8238z" fill="none" stroke="#a6ffb5" stroke-width="3" stroke-linecap="butt"/></g><g><path d="M385.72639,288.10811c0,0 0.0078,-0.64309 0.02323,-0.96173c0.5014,-10.35401 9.05495,-18.59474 19.53323,-18.59474c10.54594,0 19.14222,8.3475 19.54193,18.79558c0.00966,0.25243 0.01453,0.76089 0.01453,0.76089h-13.20991c-0.07724,-3.38464 -2.84515,-6.10464 -6.24834,-6.10464c-3.4032,0 -6.1711,2.72001 -6.24834,6.10464z" fill="#d3ffda" stroke="none" stroke-width="0" stroke-linecap="butt"/><path d="M385.7264,288.10811c0,-10.80074 8.75573,-19.55646 19.55646,-19.55646c10.80074,0 19.55646,8.75573 19.55646,19.55646c0,10.80074 -8.75573,19.55646 -19.55646,19.55646c-10.80074,0 -19.55646,-8.75573 -19.55646,-19.55646z" fill="none" stroke="#a6ffb5" stroke-width="3" stroke-linecap="butt"/><path d="M385.72319,288.05502h13.31296" fill="none" stroke="#a6ffb5" stroke-width="3" stroke-linecap="round"/><path d="M411.52315,288.05502h11.87499" fill="none" stroke="#a6ffb5" stroke-width="3" stroke-linecap="round"/><path d="M399.45906,288.10811c0,-3.2164 2.6074,-5.8238 5.8238,-5.8238c3.2164,0 5.8238,2.6074 5.8238,5.8238c0,3.2164 -2.6074,5.8238 -5.8238,5.8238c-3.2164,0 -5.8238,-2.6074 -5.8238,-5.8238z" fill="none" stroke="#a6ffb5" stroke-width="3" stroke-linecap="butt"/></g><g><path d="M55.22639,288.10811c0,0 0.0078,-0.64309 0.02323,-0.96173c0.5014,-10.35401 9.05495,-18.59474 19.53323,-18.59474c10.54594,0 19.14222,8.3475 19.54193,18.79558c0.00966,0.25243 0.01453,0.76089 0.01453,0.76089h-13.20991c-0.07724,-3.38464 -2.84515,-6.10464 -6.24834,-6.10464c-3.4032,0 -6.1711,2.72001 -6.24834,6.10464z" fill="#d3ffda" stroke="none" stroke-width="0" stroke-linecap="butt"/><path d="M55.2264,288.10811c0,-10.80074 8.75573,-19.55646 19.55646,-19.55646c10.80074,0 19.55646,8.75573 19.55646,19.55646c0,10.80074 -8.75573,19.55646 -19.55646,19.55646c-10.80074,0 -19.55646,-8.75573 -19.55646,-19.55646z" fill="none" stroke="#a6ffb5" stroke-width="3" stroke-linecap="butt"/><path d="M55.22319,288.05502h13.31296" fill="none" stroke="#a6ffb5" stroke-width="3" stroke-linecap="round"/><path d="M81.02315,288.05502h11.87499" fill="none" stroke="#a6ffb5" stroke-width="3" stroke-linecap="round"/><path d="M68.95906,288.10811c0,-3.2164 2.6074,-5.8238 5.8238,-5.8238c3.2164,0 5.8238,2.6074 5.8238,5.8238c0,3.2164 -2.6074,5.8238 -5.8238,5.8238c-3.2164,0 -5.8238,-2.6074 -5.8238,-5.8238z" fill="none" stroke="#a6ffb5" stroke-width="3" stroke-linecap="butt"/></g><g><path d="M110.22639,288.10811c0,0 0.0078,-0.64309 0.02323,-0.96173c0.5014,-10.35401 9.05495,-18.59474 19.53323,-18.59474c10.54594,0 19.14222,8.3475 19.54193,18.79558c0.00966,0.25243 0.01453,0.76089 0.01453,0.76089h-13.20991c-0.07724,-3.38464 -2.84515,-6.10464 -6.24834,-6.10464c-3.4032,0 -6.1711,2.72001 -6.24834,6.10464z" fill="#d3ffda" stroke="none" stroke-width="0" stroke-linecap="butt"/><path d="M110.2264,288.10811c0,-10.80074 8.75573,-19.55646 19.55646,-19.55646c10.80074,0 19.55646,8.75573 19.55646,19.55646c0,10.80074 -8.75573,19.55646 -19.55646,19.55646c-10.80074,0 -19.55646,-8.75573 -19.55646,-19.55646z" fill="none" stroke="#a6ffb5" stroke-width="3" stroke-linecap="butt"/><path d="M110.22319,288.05502h13.31296" fill="none" stroke="#a6ffb5" stroke-width="3" stroke-linecap="round"/><path d="M136.02315,288.05502h11.87499" fill="none" stroke="#a6ffb5" stroke-width="3" stroke-linecap="round"/><path d="M123.95906,288.10811c0,-3.2164 2.6074,-5.8238 5.8238,-5.8238c3.2164,0 5.8238,2.6074 5.8238,5.8238c0,3.2164 -2.6074,5.8238 -5.8238,5.8238c-3.2164,0 -5.8238,-2.6074 -5.8238,-5.8238z" fill="none" stroke="#a6ffb5" stroke-width="3" stroke-linecap="butt"/></g><g><path d="M165.22639,288.10811c0,0 0.0078,-0.64309 0.02323,-0.96173c0.5014,-10.35401 9.05495,-18.59474 19.53323,-18.59474c10.54594,0 19.14222,8.3475 19.54193,18.79558c0.00966,0.25243 0.01453,0.76089 0.01453,0.76089h-13.20991c-0.07724,-3.38464 -2.84515,-6.10464 -6.24834,-6.10464c-3.4032,0 -6.1711,2.72001 -6.24834,6.10464z" fill="#d3ffda" stroke="none" stroke-width="0" stroke-linecap="butt"/><path d="M165.2264,288.10811c0,-10.80074 8.75573,-19.55646 19.55646,-19.55646c10.80074,0 19.55646,8.75573 19.55646,19.55646c0,10.80074 -8.75573,19.55646 -19.55646,19.55646c-10.80074,0 -19.55646,-8.75573 -19.55646,-19.55646z" fill="none" stroke="#a6ffb5" stroke-width="3" stroke-linecap="butt"/><path d="M165.22319,288.05502h13.31296" fill="none" stroke="#a6ffb5" stroke-width="3" stroke-linecap="round"/><path d="M191.02315,288.05502h11.87499" fill="none" stroke="#a6ffb5" stroke-width="3" stroke-linecap="round"/><path d="M178.95906,288.10811c0,-3.2164 2.6074,-5.8238 5.8238,-5.8238c3.2164,0 5.8238,2.6074 5.8238,5.8238c0,3.2164 -2.6074,5.8238 -5.8238,5.8238c-3.2164,0 -5.8238,-2.6074 -5.8238,-5.8238z" fill="none" stroke="#a6ffb5" stroke-width="3" stroke-linecap="butt"/></g><g><path d="M385.85139,234.10811c0,0 0.0078,-0.64309 0.02323,-0.96173c0.5014,-10.35401 9.05495,-18.59474 19.53323,-18.59474c10.54594,0 19.14222,8.3475 19.54193,18.79558c0.00966,0.25243 0.01453,0.76089 0.01453,0.76089h-13.20991c-0.07724,-3.38464 -2.84515,-6.10464 -6.24834,-6.10464c-3.4032,0 -6.1711,2.72001 -6.24834,6.10464z" fill="#d3ffda" stroke="none" stroke-width="0" stroke-linecap="butt"/><path d="M385.8514,234.10811c0,-10.80074 8.75573,-19.55646 19.55646,-19.55646c10.80074,0 19.55646,8.75573 19.55646,19.55646c0,10.80074 -8.75573,19.55646 -19.55646,19.55646c-10.80074,0 -19.55646,-8.75573 -19.55646,-19.55646z" fill="none" stroke="#a6ffb5" stroke-width="3" stroke-linecap="butt"/><path d="M385.84819,234.05502h13.31296" fill="none" stroke="#a6ffb5" stroke-width="3" stroke-linecap="round"/><path d="M411.64815,234.05502h11.87499" fill="none" stroke="#a6ffb5" stroke-width="3" stroke-linecap="round"/><path d="M399.58406,234.10811c0,-3.2164 2.6074,-5.8238 5.8238,-5.8238c3.2164,0 5.8238,2.6074 5.8238,5.8238c0,3.2164 -2.6074,5.8238 -5.8238,5.8238c-3.2164,0 -5.8238,-2.6074 -5.8238,-5.8238z" fill="none" stroke="#a6ffb5" stroke-width="3" stroke-linecap="butt"/></g><g><path d="M220.53889,342.10811c0,0 0.0078,-0.64309 0.02323,-0.96173c0.5014,-10.35401 9.05495,-18.59474 19.53323,-18.59474c10.54594,0 19.14222,8.3475 19.54193,18.79558c0.00966,0.25243 0.01453,0.76089 0.01453,0.76089h-13.20991c-0.07724,-3.38464 -2.84515,-6.10464 -6.24834,-6.10464c-3.4032,0 -6.1711,2.72001 -6.24834,6.10464z" fill="#d3ffda" stroke="none" stroke-width="0" stroke-linecap="butt"/><path d="M220.5389,342.10811c0,-10.80074 8.75573,-19.55646 19.55646,-19.55646c10.80074,0 19.55646,8.75573 19.55646,19.55646c0,10.80074 -8.75573,19.55646 -19.55646,19.55646c-10.80074,0 -19.55646,-8.75573 -19.55646,-19.55646z" fill="none" stroke="#a6ffb5" stroke-width="3" stroke-linecap="butt"/><path d="M220.53569,342.05502h13.31296" fill="none" stroke="#a6ffb5" stroke-width="3" stroke-linecap="round"/><path d="M246.33565,342.05502h11.87499" fill="none" stroke="#a6ffb5" stroke-width="3" stroke-linecap="round"/><path d="M234.27156,342.10811c0,-3.2164 2.6074,-5.8238 5.8238,-5.8238c3.2164,0 5.8238,2.6074 5.8238,5.8238c0,3.2164 -2.6074,5.8238 -5.8238,5.8238c-3.2164,0 -5.8238,-2.6074 -5.8238,-5.8238z" fill="none" stroke="#a6ffb5" stroke-width="3" stroke-linecap="butt"/></g><g><path d="M275.53889,342.10811c0,0 0.0078,-0.64309 0.02323,-0.96173c0.5014,-10.35401 9.05495,-18.59474 19.53323,-18.59474c10.54594,0 19.14222,8.3475 19.54193,18.79558c0.00966,0.25243 0.01453,0.76089 0.01453,0.76089h-13.20991c-0.07724,-3.38464 -2.84515,-6.10464 -6.24834,-6.10464c-3.4032,0 -6.1711,2.72001 -6.24834,6.10464z" fill="#d3ffda" stroke="none" stroke-width="0" stroke-linecap="butt"/><path d="M275.5389,342.10811c0,-10.80074 8.75573,-19.55646 19.55646,-19.55646c10.80074,0 19.55646,8.75573 19.55646,19.55646c0,10.80074 -8.75573,19.55646 -19.55646,19.55646c-10.80074,0 -19.55646,-8.75573 -19.55646,-19.55646z" fill="none" stroke="#a6ffb5" stroke-width="3" stroke-linecap="butt"/><path d="M275.53569,342.05502h13.31296" fill="none" stroke="#a6ffb5" stroke-width="3" stroke-linecap="round"/><path d="M301.33565,342.05502h11.87499" fill="none" stroke="#a6ffb5" stroke-width="3" stroke-linecap="round"/><path d="M289.27155,342.10811c0,-3.2164 2.6074,-5.8238 5.8238,-5.8238c3.2164,0 5.8238,2.6074 5.8238,5.8238c0,3.2164 -2.6074,5.8238 -5.8238,5.8238c-3.2164,0 -5.8238,-2.6074 -5.8238,-5.8238z" fill="none" stroke="#a6ffb5" stroke-width="3" stroke-linecap="butt"/></g><g><path d="M330.53889,342.10811c0,0 0.0078,-0.64309 0.02323,-0.96173c0.5014,-10.35401 9.05495,-18.59474 19.53323,-18.59474c10.54594,0 19.14222,8.3475 19.54193,18.79558c0.00966,0.25243 0.01453,0.76089 0.01453,0.76089h-13.20991c-0.07724,-3.38464 -2.84515,-6.10464 -6.24834,-6.10464c-3.4032,0 -6.1711,2.72001 -6.24834,6.10464z" fill="#d3ffda" stroke="none" stroke-width="0" stroke-linecap="butt"/><path d="M330.5389,342.10811c0,-10.80074 8.75573,-19.55646 19.55646,-19.55646c10.80074,0 19.55646,8.75573 19.55646,19.55646c0,10.80074 -8.75573,19.55646 -19.55646,19.55646c-10.80074,0 -19.55646,-8.75573 -19.55646,-19.55646z" fill="none" stroke="#a6ffb5" stroke-width="3" stroke-linecap="butt"/><path d="M330.53569,342.05502h13.31296" fill="none" stroke="#a6ffb5" stroke-width="3" stroke-linecap="round"/><path d="M356.33565,342.05502h11.87499" fill="none" stroke="#a6ffb5" stroke-width="3" stroke-linecap="round"/><path d="M344.27156,342.10811c0,-3.2164 2.6074,-5.8238 5.8238,-5.8238c3.2164,0 5.8238,2.6074 5.8238,5.8238c0,3.2164 -2.6074,5.8238 -5.8238,5.8238c-3.2164,0 -5.8238,-2.6074 -5.8238,-5.8238z" fill="none" stroke="#a6ffb5" stroke-width="3" stroke-linecap="butt"/></g><g><path d="M55.03889,342.10811c0,0 0.0078,-0.64309 0.02323,-0.96173c0.5014,-10.35401 9.05495,-18.59474 19.53323,-18.59474c10.54594,0 19.14222,8.3475 19.54193,18.79558c0.00966,0.25243 0.01453,0.76089 0.01453,0.76089h-13.20991c-0.07724,-3.38464 -2.84515,-6.10464 -6.24834,-6.10464c-3.4032,0 -6.1711,2.72001 -6.24834,6.10464z" fill="#d3ffda" stroke="none" stroke-width="0" stroke-linecap="butt"/><path d="M55.0389,342.10811c0,-10.80074 8.75573,-19.55646 19.55646,-19.55646c10.80074,0 19.55646,8.75573 19.55646,19.55646c0,10.80074 -8.75573,19.55646 -19.55646,19.55646c-10.80074,0 -19.55646,-8.75573 -19.55646,-19.55646z" fill="none" stroke="#a6ffb5" stroke-width="3" stroke-linecap="butt"/><path d="M55.03569,342.05502h13.31296" fill="none" stroke="#a6ffb5" stroke-width="3" stroke-linecap="round"/><path d="M80.83565,342.05502h11.87499" fill="none" stroke="#a6ffb5" stroke-width="3" stroke-linecap="round"/><path d="M68.77156,342.10811c0,-3.2164 2.6074,-5.8238 5.8238,-5.8238c3.2164,0 5.8238,2.6074 5.8238,5.8238c0,3.2164 -2.6074,5.8238 -5.8238,5.8238c-3.2164,0 -5.8238,-2.6074 -5.8238,-5.8238z" fill="none" stroke="#a6ffb5" stroke-width="3" stroke-linecap="butt"/></g><g><path d="M110.03889,342.10811c0,0 0.0078,-0.64309 0.02323,-0.96173c0.5014,-10.35401 9.05495,-18.59474 19.53323,-18.59474c10.54594,0 19.14222,8.3475 19.54193,18.79558c0.00966,0.25243 0.01453,0.76089 0.01453,0.76089h-13.20991c-0.07724,-3.38464 -2.84515,-6.10464 -6.24834,-6.10464c-3.4032,0 -6.1711,2.72001 -6.24834,6.10464z" fill="#d3ffda" stroke="none" stroke-width="0" stroke-linecap="butt"/><path d="M110.0389,342.10811c0,-10.80074 8.75573,-19.55646 19.55646,-19.55646c10.80074,0 19.55646,8.75573 19.55646,19.55646c0,10.80074 -8.75573,19.55646 -19.55646,19.55646c-10.80074,0 -19.55646,-8.75573 -19.55646,-19.55646z" fill="none" stroke="#a6ffb5" stroke-width="3" stroke-linecap="butt"/><path d="M110.03569,342.05502h13.31296" fill="none" stroke="#a6ffb5" stroke-width="3" stroke-linecap="round"/><path d="M135.83565,342.05502h11.87499" fill="none" stroke="#a6ffb5" stroke-width="3" stroke-linecap="round"/><path d="M123.77156,342.10811c0,-3.2164 2.6074,-5.8238 5.8238,-5.8238c3.2164,0 5.8238,2.6074 5.8238,5.8238c0,3.2164 -2.6074,5.8238 -5.8238,5.8238c-3.2164,0 -5.8238,-2.6074 -5.8238,-5.8238z" fill="none" stroke="#a6ffb5" stroke-width="3" stroke-linecap="butt"/></g><g><path d="M165.03889,342.10811c0,0 0.0078,-0.64309 0.02323,-0.96173c0.5014,-10.35401 9.05495,-18.59474 19.53323,-18.59474c10.54594,0 19.14222,8.3475 19.54193,18.79558c0.00966,0.25243 0.01453,0.76089 0.01453,0.76089h-13.20991c-0.07724,-3.38464 -2.84515,-6.10464 -6.24834,-6.10464c-3.4032,0 -6.1711,2.72001 -6.24834,6.10464z" fill="#d3ffda" stroke="none" stroke-width="0" stroke-linecap="butt"/><path d="M165.0389,342.10811c0,-10.80074 8.75573,-19.55646 19.55646,-19.55646c10.80074,0 19.55646,8.75573 19.55646,19.55646c0,10.80074 -8.75573,19.55646 -19.55646,19.55646c-10.80074,0 -19.55646,-8.75573 -19.55646,-19.55646z" fill="none" stroke="#a6ffb5" stroke-width="3" stroke-linecap="butt"/><path d="M165.03569,342.05502h13.31296" fill="none" stroke="#a6ffb5" stroke-width="3" stroke-linecap="round"/><path d="M190.83565,342.05502h11.87499" fill="none" stroke="#a6ffb5" stroke-width="3" stroke-linecap="round"/><path d="M178.77156,342.10811c0,-3.2164 2.6074,-5.8238 5.8238,-5.8238c3.2164,0 5.8238,2.6074 5.8238,5.8238c0,3.2164 -2.6074,5.8238 -5.8238,5.8238c-3.2164,0 -5.8238,-2.6074 -5.8238,-5.8238z" fill="none" stroke="#a6ffb5" stroke-width="3" stroke-linecap="butt"/></g><g><path d="M220.78889,396.10811c0,0 0.0078,-0.64309 0.02323,-0.96173c0.5014,-10.35401 9.05495,-18.59474 19.53323,-18.59474c10.54594,0 19.14222,8.3475 19.54193,18.79558c0.00966,0.25243 0.01453,0.76089 0.01453,0.76089h-13.20991c-0.07724,-3.38464 -2.84515,-6.10464 -6.24834,-6.10464c-3.4032,0 -6.1711,2.72001 -6.24834,6.10464z" fill="#d3ffda" stroke="none" stroke-width="0" stroke-linecap="butt"/><path d="M220.7889,396.10811c0,-10.80074 8.75573,-19.55646 19.55646,-19.55646c10.80074,0 19.55646,8.75573 19.55646,19.55646c0,10.80074 -8.75573,19.55646 -19.55646,19.55646c-10.80074,0 -19.55646,-8.75573 -19.55646,-19.55646z" fill="none" stroke="#a6ffb5" stroke-width="3" stroke-linecap="butt"/><path d="M220.78569,396.05502h13.31296" fill="none" stroke="#a6ffb5" stroke-width="3" stroke-linecap="round"/><path d="M246.58565,396.05502h11.87499" fill="none" stroke="#a6ffb5" stroke-width="3" stroke-linecap="round"/><path d="M234.52156,396.10811c0,-3.2164 2.6074,-5.8238 5.8238,-5.8238c3.2164,0 5.8238,2.6074 5.8238,5.8238c0,3.2164 -2.6074,5.8238 -5.8238,5.8238c-3.2164,0 -5.8238,-2.6074 -5.8238,-5.8238z" fill="none" stroke="#a6ffb5" stroke-width="3" stroke-linecap="butt"/></g><g><path d="M275.78889,396.10811c0,0 0.0078,-0.64309 0.02323,-0.96173c0.5014,-10.35401 9.05495,-18.59474 19.53323,-18.59474c10.54594,0 19.14222,8.3475 19.54193,18.79558c0.00966,0.25243 0.01453,0.76089 0.01453,0.76089h-13.20991c-0.07724,-3.38464 -2.84515,-6.10464 -6.24834,-6.10464c-3.4032,0 -6.1711,2.72001 -6.24834,6.10464z" fill="#d3ffda" stroke="none" stroke-width="0" stroke-linecap="butt"/><path d="M275.7889,396.10811c0,-10.80074 8.75573,-19.55646 19.55646,-19.55646c10.80074,0 19.55646,8.75573 19.55646,19.55646c0,10.80074 -8.75573,19.55646 -19.55646,19.55646c-10.80074,0 -19.55646,-8.75573 -19.55646,-19.55646z" fill="none" stroke="#a6ffb5" stroke-width="3" stroke-linecap="butt"/><path d="M275.78569,396.05502h13.31296" fill="none" stroke="#a6ffb5" stroke-width="3" stroke-linecap="round"/><path d="M301.58565,396.05502h11.87499" fill="none" stroke="#a6ffb5" stroke-width="3" stroke-linecap="round"/><path d="M289.52155,396.10811c0,-3.2164 2.6074,-5.8238 5.8238,-5.8238c3.2164,0 5.8238,2.6074 5.8238,5.8238c0,3.2164 -2.6074,5.8238 -5.8238,5.8238c-3.2164,0 -5.8238,-2.6074 -5.8238,-5.8238z" fill="none" stroke="#a6ffb5" stroke-width="3" stroke-linecap="butt"/></g><g><path d="M330.78889,396.10811c0,0 0.0078,-0.64309 0.02323,-0.96173c0.5014,-10.35401 9.05495,-18.59474 19.53323,-18.59474c10.54594,0 19.14222,8.3475 19.54193,18.79558c0.00966,0.25243 0.01453,0.76089 0.01453,0.76089h-13.20991c-0.07724,-3.38464 -2.84515,-6.10464 -6.24834,-6.10464c-3.4032,0 -6.1711,2.72001 -6.24834,6.10464z" fill="#d3ffda" stroke="none" stroke-width="0" stroke-linecap="butt"/><path d="M330.7889,396.10811c0,-10.80074 8.75573,-19.55646 19.55646,-19.55646c10.80074,0 19.55646,8.75573 19.55646,19.55646c0,10.80074 -8.75573,19.55646 -19.55646,19.55646c-10.80074,0 -19.55646,-8.75573 -19.55646,-19.55646z" fill="none" stroke="#a6ffb5" stroke-width="3" stroke-linecap="butt"/><path d="M330.78569,396.05502h13.31296" fill="none" stroke="#a6ffb5" stroke-width="3" stroke-linecap="round"/><path d="M356.58565,396.05502h11.87499" fill="none" stroke="#a6ffb5" stroke-width="3" stroke-linecap="round"/><path d="M344.52156,396.10811c0,-3.2164 2.6074,-5.8238 5.8238,-5.8238c3.2164,0 5.8238,2.6074 5.8238,5.8238c0,3.2164 -2.6074,5.8238 -5.8238,5.8238c-3.2164,0 -5.8238,-2.6074 -5.8238,-5.8238z" fill="none" stroke="#a6ffb5" stroke-width="3" stroke-linecap="butt"/></g><g><path d="M385.78889,396.10811c0,0 0.0078,-0.64309 0.02323,-0.96173c0.5014,-10.35401 9.05495,-18.59474 19.53323,-18.59474c10.54594,0 19.14222,8.3475 19.54193,18.79558c0.00966,0.25243 0.01453,0.76089 0.01453,0.76089h-13.20991c-0.07724,-3.38464 -2.84515,-6.10464 -6.24834,-6.10464c-3.4032,0 -6.1711,2.72001 -6.24834,6.10464z" fill="#d3ffda" stroke="none" stroke-width="0" stroke-linecap="butt"/><path d="M385.7889,396.10811c0,-10.80074 8.75573,-19.55646 19.55646,-19.55646c10.80074,0 19.55646,8.75573 19.55646,19.55646c0,10.80074 -8.75573,19.55646 -19.55646,19.55646c-10.80074,0 -19.55646,-8.75573 -19.55646,-19.55646z" fill="none" stroke="#a6ffb5" stroke-width="3" stroke-linecap="butt"/><path d="M385.78569,396.05502h13.31296" fill="none" stroke="#a6ffb5" stroke-width="3" stroke-linecap="round"/><path d="M411.58565,396.05502h11.87499" fill="none" stroke="#a6ffb5" stroke-width="3" stroke-linecap="round"/><path d="M399.52156,396.10811c0,-3.2164 2.6074,-5.8238 5.8238,-5.8238c3.2164,0 5.8238,2.6074 5.8238,5.8238c0,3.2164 -2.6074,5.8238 -5.8238,5.8238c-3.2164,0 -5.8238,-2.6074 -5.8238,-5.8238z" fill="none" stroke="#a6ffb5" stroke-width="3" stroke-linecap="butt"/></g><g><path d="M55.28889,396.10811c0,0 0.0078,-0.64309 0.02323,-0.96173c0.5014,-10.35401 9.05495,-18.59474 19.53323,-18.59474c10.54594,0 19.14222,8.3475 19.54193,18.79558c0.00966,0.25243 0.01453,0.76089 0.01453,0.76089h-13.20991c-0.07724,-3.38464 -2.84515,-6.10464 -6.24834,-6.10464c-3.4032,0 -6.1711,2.72001 -6.24834,6.10464z" fill="#d3ffda" stroke="none" stroke-width="0" stroke-linecap="butt"/><path d="M55.2889,396.10811c0,-10.80074 8.75573,-19.55646 19.55646,-19.55646c10.80074,0 19.55646,8.75573 19.55646,19.55646c0,10.80074 -8.75573,19.55646 -19.55646,19.55646c-10.80074,0 -19.55646,-8.75573 -19.55646,-19.55646z" fill="none" stroke="#a6ffb5" stroke-width="3" stroke-linecap="butt"/><path d="M55.28569,396.05502h13.31296" fill="none" stroke="#a6ffb5" stroke-width="3" stroke-linecap="round"/><path d="M81.08565,396.05502h11.87499" fill="none" stroke="#a6ffb5" stroke-width="3" stroke-linecap="round"/><path d="M69.02156,396.10811c0,-3.2164 2.6074,-5.8238 5.8238,-5.8238c3.2164,0 5.8238,2.6074 5.8238,5.8238c0,3.2164 -2.6074,5.8238 -5.8238,5.8238c-3.2164,0 -5.8238,-2.6074 -5.8238,-5.8238z" fill="none" stroke="#a6ffb5" stroke-width="3" stroke-linecap="butt"/></g><g><path d="M110.28889,396.10811c0,0 0.0078,-0.64309 0.02323,-0.96173c0.5014,-10.35401 9.05495,-18.59474 19.53323,-18.59474c10.54594,0 19.14222,8.3475 19.54193,18.79558c0.00966,0.25243 0.01453,0.76089 0.01453,0.76089h-13.20991c-0.07724,-3.38464 -2.84515,-6.10464 -6.24834,-6.10464c-3.4032,0 -6.1711,2.72001 -6.24834,6.10464z" fill="#d3ffda" stroke="none" stroke-width="0" stroke-linecap="butt"/><path d="M110.2889,396.10811c0,-10.80074 8.75573,-19.55646 19.55646,-19.55646c10.80074,0 19.55646,8.75573 19.55646,19.55646c0,10.80074 -8.75573,19.55646 -19.55646,19.55646c-10.80074,0 -19.55646,-8.75573 -19.55646,-19.55646z" fill="none" stroke="#a6ffb5" stroke-width="3" stroke-linecap="butt"/><path d="M110.28569,396.05502h13.31296" fill="none" stroke="#a6ffb5" stroke-width="3" stroke-linecap="round"/><path d="M136.08565,396.05502h11.87499" fill="none" stroke="#a6ffb5" stroke-width="3" stroke-linecap="round"/><path d="M124.02156,396.10811c0,-3.2164 2.6074,-5.8238 5.8238,-5.8238c3.2164,0 5.8238,2.6074 5.8238,5.8238c0,3.2164 -2.6074,5.8238 -5.8238,5.8238c-3.2164,0 -5.8238,-2.6074 -5.8238,-5.8238z" fill="none" stroke="#a6ffb5" stroke-width="3" stroke-linecap="butt"/></g><g><path d="M165.28889,396.10811c0,0 0.0078,-0.64309 0.02323,-0.96173c0.5014,-10.35401 9.05495,-18.59474 19.53323,-18.59474c10.54594,0 19.14222,8.3475 19.54193,18.79558c0.00966,0.25243 0.01453,0.76089 0.01453,0.76089h-13.20991c-0.07724,-3.38464 -2.84515,-6.10464 -6.24834,-6.10464c-3.4032,0 -6.1711,2.72001 -6.24834,6.10464z" fill="#d3ffda" stroke="none" stroke-width="0" stroke-linecap="butt"/><path d="M165.2889,396.10811c0,-10.80074 8.75573,-19.55646 19.55646,-19.55646c10.80074,0 19.55646,8.75573 19.55646,19.55646c0,10.80074 -8.75573,19.55646 -19.55646,19.55646c-10.80074,0 -19.55646,-8.75573 -19.55646,-19.55646z" fill="none" stroke="#a6ffb5" stroke-width="3" stroke-linecap="butt"/><path d="M165.28569,396.05502h13.31296" fill="none" stroke="#a6ffb5" stroke-width="3" stroke-linecap="round"/><path d="M191.08565,396.05502h11.87499" fill="none" stroke="#a6ffb5" stroke-width="3" stroke-linecap="round"/><path d="M179.02156,396.10811c0,-3.2164 2.6074,-5.8238 5.8238,-5.8238c3.2164,0 5.8238,2.6074 5.8238,5.8238c0,3.2164 -2.6074,5.8238 -5.8238,5.8238c-3.2164,0 -5.8238,-2.6074 -5.8238,-5.8238z" fill="none" stroke="#a6ffb5" stroke-width="3" stroke-linecap="butt"/></g><g><path d="M385.91389,342.10811c0,0 0.0078,-0.64309 0.02323,-0.96173c0.5014,-10.35401 9.05495,-18.59474 19.53323,-18.59474c10.54594,0 19.14222,8.3475 19.54193,18.79558c0.00966,0.25243 0.01453,0.76089 0.01453,0.76089h-13.20991c-0.07724,-3.38464 -2.84515,-6.10464 -6.24834,-6.10464c-3.4032,0 -6.1711,2.72001 -6.24834,6.10464z" fill="#d3ffda" stroke="none" stroke-width="0" stroke-linecap="butt"/><path d="M385.9139,342.10811c0,-10.80074 8.75573,-19.55646 19.55646,-19.55646c10.80074,0 19.55646,8.75573 19.55646,19.55646c0,10.80074 -8.75573,19.55646 -19.55646,19.55646c-10.80074,0 -19.55646,-8.75573 -19.55646,-19.55646z" fill="none" stroke="#a6ffb5" stroke-width="3" stroke-linecap="butt"/><path d="M385.91069,342.05502h13.31296" fill="none" stroke="#a6ffb5" stroke-width="3" stroke-linecap="round"/><path d="M411.71065,342.05502h11.87499" fill="none" stroke="#a6ffb5" stroke-width="3" stroke-linecap="round"/><path d="M399.64656,342.10811c0,-3.2164 2.6074,-5.8238 5.8238,-5.8238c3.2164,0 5.8238,2.6074 5.8238,5.8238c0,3.2164 -2.6074,5.8238 -5.8238,5.8238c-3.2164,0 -5.8238,-2.6074 -5.8238,-5.8238z" fill="none" stroke="#a6ffb5" stroke-width="3" stroke-linecap="butt"/></g></g></g></svg>