<svg version="1.1" xmlns="http://www.w3.org/2000/svg" xmlns:xlink="http://www.w3.org/1999/xlink" width="55.39971" height="19.73654" viewBox="0,0,55.39971,19.73654"><defs><linearGradient x1="213.40722" y1="175.65106" x2="230.82289" y2="175.65106" gradientUnits="userSpaceOnUse" id="color-1"><stop offset="0" stop-color="#ff0000"/><stop offset="1" stop-color="#ff3333"/></linearGradient></defs><g transform="translate(-212.30014,-170.13173)"><g data-paper-data="{&quot;isPaintingLayer&quot;:true}" fill-rule="nonzero" stroke-linecap="butt" stroke-linejoin="miter" stroke-miterlimit="10" stroke-dasharray="" stroke-dashoffset="0" style="mix-blend-mode: normal"><g fill="#828282" stroke="none"><path d="M221.89141,189.83047v-19.58531h36.66157v19.58531z" stroke-width="NaN"/><path d="M248.44327,179.9622c0,-5.42921 4.31073,-9.83046 9.62829,-9.83046c5.31756,0 9.6283,4.40125 9.6283,9.83046c0,5.42921 -4.31074,9.83047 -9.6283,9.83047c-5.31756,0 -9.62829,-4.40125 -9.62829,-9.83047z" stroke-width="0"/><path d="M212.30015,180.03782c0,-5.42921 4.31074,-9.83047 9.6283,-9.83047c5.31756,0 9.62829,4.40125 9.62829,9.83047c0,5.42921 -4.31073,9.83046 -9.62829,9.83046c-5.31756,0 -9.6283,-4.40125 -9.6283,-9.83046z" stroke-width="0"/></g><g fill="#b3b3b3" stroke="none"><path d="M222.22411,189.4514v-18.83008h35.988v18.83008z" stroke-width="NaN"/><path d="M248.28815,179.96366c0,-5.21986 4.23153,-9.45139 9.45139,-9.45139c5.21986,0 9.45139,4.23153 9.45139,9.45139c0,5.21986 -4.23154,9.4514 -9.45139,9.4514c-5.21986,0 -9.45139,-4.23154 -9.45139,-9.4514z" stroke-width="0"/><path d="M212.80907,180.03636c0,-5.21986 4.23154,-9.45139 9.4514,-9.45139c5.21986,0 9.45139,4.23153 9.45139,9.45139c0,5.21986 -4.23153,9.45139 -9.45139,9.45139c-5.21986,0 -9.4514,-4.23153 -9.4514,-9.45139z" stroke-width="0"/></g><g stroke="#000000" stroke-width="2"><g><path d="M230.82289,180.00498h-17.41567c0,0 0.00418,-0.31369 0.01242,-0.46898c0.24365,-4.59115 4.04355,-8.23886 8.69543,-8.23886c4.7021,0 8.53373,3.72691 8.70206,8.38791c0.00384,0.10617 0.00577,0.31993 0.00577,0.31993z" fill="url(#color-1)"/><path d="M219.41437,180.00498c0,-1.49155 1.20914,-2.70069 2.70069,-2.70069c1.49155,0 2.70069,1.20915 2.70069,2.70069c0,1.49155 -1.20915,2.70069 -2.70069,2.70069c-1.49155,0 -2.70069,-1.20914 -2.70069,-2.70069z" fill="#000000"/><path d="M219.71725,180.00498c0,-1.32427 1.07354,-2.39781 2.39781,-2.39781c1.32428,0 2.3978,1.07353 2.3978,2.39781c0,1.32428 -1.07353,2.39781 -2.3978,2.39781c-1.32427,0 -2.39781,-1.07354 -2.39781,-2.39781z" fill="#ffffff"/></g><path d="M213.40722,179.99503h6.04064c0.01764,1.46734 1.21261,2.65141 2.68413,2.65141c1.47153,0 2.66651,-1.18407 2.68414,-2.65141h6.00675c0,0 -0.00418,0.31369 -0.01242,0.46898c-0.24365,4.59115 -4.04355,8.23886 -8.69542,8.23886c-4.7021,0 -8.53374,-3.72691 -8.70207,-8.38791c-0.00384,-0.10617 -0.00576,-0.31993 -0.00576,-0.31993z" fill="#ffffff"/></g></g></g></svg>