<svg version="1.1" xmlns="http://www.w3.org/2000/svg" xmlns:xlink="http://www.w3.org/1999/xlink" width="55.3997" height="19.73653" viewBox="0,0,55.3997,19.73653"><defs><linearGradient x1="266.59278" y1="175.65106" x2="249.17711" y2="175.65106" gradientUnits="userSpaceOnUse" id="color-1"><stop offset="0" stop-color="#ff0000"/><stop offset="1" stop-color="#ff3333"/></linearGradient></defs><g transform="translate(-212.30015,-170.13174)"><g data-paper-data="{&quot;isPaintingLayer&quot;:true}" fill-rule="nonzero" stroke-linecap="butt" stroke-linejoin="miter" stroke-miterlimit="10" stroke-dasharray="" stroke-dashoffset="0" style="mix-blend-mode: normal"><g data-paper-data="{&quot;index&quot;:null}" fill="#828282" stroke="none"><path d="M221.44702,189.83047v-19.5853h36.66157v19.5853z" stroke-width="NaN"/><path d="M221.92844,189.79266c-5.31756,0 -9.62829,-4.40125 -9.62829,-9.83046c0,-5.42921 4.31073,-9.83046 9.62829,-9.83046c5.31756,0 9.62829,4.40125 9.62829,9.83046c0,5.42921 -4.31073,9.83046 -9.62829,9.83046z" stroke-width="0"/><path d="M258.07156,189.86827c-5.31756,0 -9.62829,-4.40125 -9.62829,-9.83046c0,-5.42921 4.31073,-9.83046 9.62829,-9.83046c5.31756,0 9.62829,4.40125 9.62829,9.83046c0,5.42921 -4.31073,9.83046 -9.62829,9.83046z" stroke-width="0"/></g><g data-paper-data="{&quot;index&quot;:null}" fill="#b3ffb9" stroke="none"><path d="M221.78789,189.4514v-18.83008h35.988v18.83008z" stroke-width="NaN"/><path d="M222.26047,189.41505c-5.21986,0 -9.45139,-4.23153 -9.45139,-9.45139c0,-5.21986 4.23153,-9.45139 9.45139,-9.45139c5.21986,0 9.45139,4.23153 9.45139,9.45139c0,5.21986 -4.23153,9.45139 -9.45139,9.45139z" stroke-width="0"/><path d="M257.73954,189.48775c-5.21986,0 -9.45139,-4.23153 -9.45139,-9.45139c0,-5.21986 4.23153,-9.45139 9.45139,-9.45139c5.21986,0 9.45139,4.23153 9.45139,9.45139c0,5.21986 -4.23153,9.45139 -9.45139,9.45139z" stroke-width="0"/></g><g data-paper-data="{&quot;index&quot;:null}" stroke="#000000" stroke-width="2"><g><path d="M249.17711,180.00499c0,0 0.00194,-0.21375 0.00577,-0.31992c0.16833,-4.661 3.99997,-8.38792 8.70207,-8.38792c4.65187,0 8.45177,3.64771 8.69542,8.23886c0.00824,0.15528 0.01241,0.46897 0.01241,0.46897h-17.41567z" fill="url(#color-1)"/><path d="M257.88495,182.70567c-1.49155,0 -2.70069,-1.20914 -2.70069,-2.70069c0,-1.49155 1.20914,-2.70069 2.70069,-2.70069c1.49155,0 2.70069,1.20914 2.70069,2.70069c0,1.49155 -1.20914,2.70069 -2.70069,2.70069z" fill="#000000"/><path d="M257.88495,182.40279c-1.32427,0 -2.39781,-1.07354 -2.39781,-2.39781c0,-1.32427 1.07354,-2.39781 2.39781,-2.39781c1.32427,0 2.39781,1.07354 2.39781,2.39781c0,1.32427 -1.07354,2.39781 -2.39781,2.39781z" fill="#ffffff"/></g><path d="M266.59277,179.99503c0,0 -0.00194,0.21375 -0.00577,0.31992c-0.16833,4.661 -3.99997,8.38791 -8.70207,8.38791c-4.65187,0 -8.45177,-3.64771 -8.69542,-8.23886c-0.00824,-0.15528 -0.01241,-0.46897 -0.01241,-0.46897h6.00676c0.01764,1.46735 1.21262,2.65141 2.68414,2.65141c1.47153,0 2.6665,-1.18407 2.68414,-2.65141h6.04064z" fill="#ffffff"/></g></g></g></svg>