<svg version="1.1" xmlns="http://www.w3.org/2000/svg" xmlns:xlink="http://www.w3.org/1999/xlink" width="453.50614" height="192.19219" viewBox="0,0,453.50614,192.19219"><defs><radialGradient cx="109.34303" cy="180" r="96.0961" gradientUnits="userSpaceOnUse" id="color-1"><stop offset="0" stop-color="#66ff94" stop-opacity="0"/><stop offset="1" stop-color="#66ff94"/></radialGradient><radialGradient cx="370.65697" cy="180" r="96.0961" gradientUnits="userSpaceOnUse" id="color-2"><stop offset="0" stop-color="#ff6666" stop-opacity="0"/><stop offset="1" stop-color="#ff6666"/></radialGradient></defs><g transform="translate(-13.24693,-83.9039)"><g data-paper-data="{&quot;isPaintingLayer&quot;:true}" fill-rule="nonzero" stroke="none" stroke-width="none" stroke-linecap="butt" stroke-linejoin="miter" stroke-miterlimit="10" stroke-dasharray="" stroke-dashoffset="0" style="mix-blend-mode: normal"><path d="M13.24693,180c0,-53.07241 43.02369,-96.0961 96.0961,-96.0961c53.07241,0 96.0961,43.02369 96.0961,96.0961c0,53.07241 -43.02369,96.0961 -96.0961,96.0961c-53.07241,0 -96.0961,-43.02369 -96.0961,-96.0961z" fill="url(#color-1)"/><path d="M274.56088,180c0,-53.07241 43.02369,-96.0961 96.0961,-96.0961c53.07241,0 96.0961,43.02369 96.0961,96.0961c0,53.07241 -43.02369,96.0961 -96.0961,96.0961c-53.07241,0 -96.0961,-43.02369 -96.0961,-96.0961z" fill="url(#color-2)"/></g></g></svg>