<svg version="1.1" xmlns="http://www.w3.org/2000/svg" xmlns:xlink="http://www.w3.org/1999/xlink" width="270.84542" height="123.9206" viewBox="0,0,270.84542,123.9206"><defs><linearGradient x1="161.3464" y1="121.15087" x2="171.50645" y2="238.84914" gradientUnits="userSpaceOnUse" id="color-1"><stop offset="0" stop-color="#66ff94"/><stop offset="1" stop-color="#48a040"/></linearGradient><linearGradient x1="308.49355" y1="121.15087" x2="318.6536" y2="238.84914" gradientUnits="userSpaceOnUse" id="color-2"><stop offset="0" stop-color="#ff6666"/><stop offset="1" stop-color="#a14040"/></linearGradient></defs><g transform="translate(-104.57729,-117.92853)"><g data-paper-data="{&quot;isPaintingLayer&quot;:true}" fill-rule="nonzero" stroke-linejoin="miter" stroke-miterlimit="10" stroke-dasharray="" stroke-dashoffset="0" style="mix-blend-mode: normal"><path d="M161.3464,121.15087c32.50148,-2.80562 61.12354,21.26763 63.92916,53.76911c2.80562,32.50148 -21.26764,61.12354 -53.76912,63.92916c-32.50148,2.80562 -61.12353,-21.26763 -63.92915,-53.76911c-2.80562,-32.50148 21.26763,-61.12354 53.76911,-63.92916z" fill="#66ff94" stroke="url(#color-1)" stroke-width="6" stroke-linecap="butt"/><path d="M129.97739,182.85193l22.39807,22.39807l50.5,-50.5" fill="none" stroke="#ffffff" stroke-width="17" stroke-linecap="round"/><path d="M308.49355,121.15087c32.50148,-2.80562 61.12354,21.26763 63.92916,53.76911c2.80562,32.50148 -21.26763,61.12354 -53.76911,63.92916c-32.50148,2.80562 -61.12354,-21.26763 -63.92916,-53.76911c-2.80562,-32.50148 21.26763,-61.12354 53.76911,-63.92916z" fill="#ff6666" stroke="url(#color-2)" stroke-width="6" stroke-linecap="butt"/><path d="M282.69857,149.125l61.75,61.75" fill="none" stroke="#ffffff" stroke-width="17" stroke-linecap="round"/><path d="M282.69857,210.875l61.75,-61.75" fill="none" stroke="#ffffff" stroke-width="17" stroke-linecap="round"/></g></g></svg>