<svg version="1.1" xmlns="http://www.w3.org/2000/svg" xmlns:xlink="http://www.w3.org/1999/xlink" width="173.01057" height="61.63626" viewBox="0,0,173.01057,61.63626"><g transform="translate(-153.49471,-149.18187)"><g data-paper-data="{&quot;isPaintingLayer&quot;:true}" fill-rule="nonzero" stroke="none" stroke-linecap="butt" stroke-linejoin="miter" stroke-miterlimit="10" stroke-dasharray="" stroke-dashoffset="0" style="mix-blend-mode: normal"><g fill="#828282"><path d="M183.44774,210.70006v-61.16394h114.49229v61.16394z" stroke-width="NaN"/><path d="M266.36792,179.88193c0,-16.95517 13.46221,-30.70005 30.06868,-30.70005c16.60648,0 30.06868,13.74488 30.06868,30.70005c0,16.95517 -13.46221,30.70005 -30.06868,30.70005c-16.60648,0 -30.06868,-13.74488 -30.06868,-30.70005z" stroke-width="0"/><path d="M153.49471,180.11808c0,-16.95517 13.46221,-30.70005 30.06868,-30.70005c16.60648,0 30.06868,13.74488 30.06868,30.70005c0,16.95517 -13.46221,30.70005 -30.06868,30.70005c-16.60648,0 -30.06868,-13.74488 -30.06868,-30.70005z" stroke-width="0"/></g><g fill="#b3b3b3"><path d="M184.48676,209.51625v-58.80543h112.38876v58.80543z" stroke-width="NaN"/><path d="M265.88347,179.88649c0,-16.30137 13.21487,-29.51624 29.51624,-29.51624c16.30137,0 29.51624,13.21487 29.51624,29.51624c0,16.30137 -13.21487,29.51624 -29.51624,29.51624c-16.30137,0 -29.51624,-13.21487 -29.51624,-29.51624z" stroke-width="0"/><path d="M155.08405,180.11354c0,-16.30137 13.21487,-29.51624 29.51624,-29.51624c16.30137,0 29.51624,13.21487 29.51624,29.51624c0,16.30137 -13.21487,29.51624 -29.51624,29.51624c-16.30137,0 -29.51624,-13.21487 -29.51624,-29.51624z" stroke-width="0"/></g></g></g></svg>