<svg version="1.1" xmlns="http://www.w3.org/2000/svg" xmlns:xlink="http://www.w3.org/1999/xlink" width="160.78344" height="26.67428" viewBox="0,0,160.78344,26.67428"><g transform="translate(-159.60302,-166.4277)"><g data-paper-data="{&quot;isPaintingLayer&quot;:true}" fill="#ff6363" fill-rule="nonzero" stroke="#996868" stroke-width="2" stroke-linecap="butt" stroke-linejoin="miter" stroke-miterlimit="10" stroke-dasharray="" stroke-dashoffset="0" style="mix-blend-mode: normal"><path d="M160.74394,190.53066c0.88996,-2.00064 4.8521,-10.90763 4.8521,-10.90763c0,0 -4.29389,-9.43337 -5.08287,-11.16671c-0.23946,-0.52608 0.15927,-1.02862 1.1241,-1.02862c8.97459,0 138.9839,0 156.54042,0c1.27445,0 1.61946,0.74007 1.29862,1.44495c-0.87515,1.92265 -4.89337,10.75038 -4.89337,10.75038c0,0 3.93275,8.8409 4.83012,10.85821c0.3467,0.77938 0.10497,1.62074 -1.05033,1.62074c-16.80491,0 -147.71859,0 -156.72546,0c-0.96483,0 -1.23111,-0.81198 -0.89333,-1.57132z"/></g></g></svg>