<svg version="1.1" xmlns="http://www.w3.org/2000/svg" xmlns:xlink="http://www.w3.org/1999/xlink" width="40.84042" height="40.84042" viewBox="0,0,40.84042,40.84042"><defs><linearGradient x1="226.1898" y1="168.58095" x2="253.8102" y2="191.41905" gradientUnits="userSpaceOnUse" id="color-1"><stop offset="0" stop-color="#e0bf5a"/><stop offset="1" stop-color="#9f873f"/></linearGradient><linearGradient x1="225.2068" y1="166.01899" x2="254.84361" y2="166.01899" gradientUnits="userSpaceOnUse" id="color-2"><stop offset="0" stop-color="#ffd966"/><stop offset="1" stop-color="#e4c25b"/></linearGradient><linearGradient x1="225.02117" y1="193.8798" x2="254.90184" y2="193.8798" gradientUnits="userSpaceOnUse" id="color-3"><stop offset="0" stop-color="#ffd966"/><stop offset="1" stop-color="#e5c35c"/></linearGradient></defs><g transform="translate(-219.57979,-159.57979)"><g data-paper-data="{&quot;isPaintingLayer&quot;:true}" fill-rule="nonzero" stroke-linecap="butt" stroke-linejoin="miter" stroke-miterlimit="10" stroke-dasharray="" stroke-dashoffset="0" style="mix-blend-mode: normal"><path d="M228.58095,193.8102c-7.62716,-6.30657 -8.69772,-17.60209 -2.39115,-25.22925c6.30657,-7.62716 17.60209,-8.69772 25.22925,-2.39115c7.62716,6.30657 8.69772,17.60209 2.39115,25.22925c-6.30657,7.62716 -17.60209,8.69772 -25.22925,2.39115z" fill="#e0bf5a" stroke="url(#color-1)" stroke-width="5"/><path d="M225.2068,169.88374c0,0 0.45599,-0.64257 0.69917,-0.9518c3.28096,-4.17216 8.37458,-6.85166 14.09403,-6.85166c5.72994,0 10.83176,2.68934 14.11207,6.87463c0.25505,0.32541 0.73154,1.0028 0.73154,1.0028z" fill="url(#color-2)" stroke="none" stroke-width="none"/><path d="M254.90184,189.95584c0,0 -0.42647,0.61598 -0.65355,0.9132c-3.2743,4.28577 -8.43841,7.05067 -14.2483,7.05067c-5.97885,0 -11.27382,-2.92806 -14.52915,-7.42843c-0.15454,-0.21364 -0.44968,-0.65141 -0.44968,-0.65141z" fill="url(#color-3)" stroke="none" stroke-width="none"/></g></g></svg>