<svg version="1.1" xmlns="http://www.w3.org/2000/svg" xmlns:xlink="http://www.w3.org/1999/xlink" width="120.32132" height="80.00066" viewBox="0,0,120.32132,80.00066"><defs><linearGradient x1="181.60901" y1="150.80451" x2="298.39099" y2="150.80451" gradientUnits="userSpaceOnUse" id="color-1"><stop offset="0" stop-color="#ff0000"/><stop offset="1" stop-color="#ff3333"/></linearGradient></defs><g transform="translate(-179.83557,-119.85901)"><g data-paper-data="{&quot;isPaintingLayer&quot;:true}" fill-rule="nonzero" stroke="#000000" stroke-width="3.5" stroke-linecap="butt" stroke-linejoin="miter" stroke-miterlimit="10" stroke-dasharray="" stroke-dashoffset="0" style="mix-blend-mode: normal"><path d="M298.39099,180h-116.78198c0,0 0.02798,-2.1035 0.08324,-3.14474c1.63381,-30.78626 27.11431,-55.24625 58.30775,-55.24625c31.53026,0 57.22355,24.99109 58.35231,56.24573c0.02571,0.71192 0.03868,2.14526 0.03868,2.14526z" fill="url(#color-1)"/><path d="M221.89033,180c0,-10.0017 8.10797,-18.10967 18.10967,-18.10967c10.0017,0 18.10967,8.10797 18.10967,18.10967c0,10.0017 -8.10797,18.10967 -18.10967,18.10967c-10.0017,0 -18.10967,-8.10797 -18.10967,-18.10967z" fill="#000000"/><path d="M223.92132,180c0,-8.88001 7.19867,-16.07868 16.07868,-16.07868c8.88001,0 16.07868,7.19867 16.07868,16.07868c0,8.88001 -7.19867,16.07868 -16.07868,16.07868c-8.88001,0 -16.07868,-7.19867 -16.07868,-16.07868z" fill="#ffffff"/></g></g></svg>