<svg version="1.1" xmlns="http://www.w3.org/2000/svg" xmlns:xlink="http://www.w3.org/1999/xlink" width="338.17321" height="357.1305" viewBox="0,0,338.17321,357.1305"><defs><linearGradient x1="72.66339" y1="170.52136" x2="407.33661" y2="170.52136" gradientUnits="userSpaceOnUse" id="color-1"><stop offset="0" stop-color="#ff0000"/><stop offset="1" stop-color="#ff3333"/></linearGradient></defs><g transform="translate(-70.91339,-1.43475)"><g data-paper-data="{&quot;isPaintingLayer&quot;:true}" fill-rule="nonzero" stroke="#000000" stroke-width="3.5" stroke-linecap="butt" stroke-linejoin="miter" stroke-miterlimit="10" stroke-dasharray="" stroke-dashoffset="0" style="mix-blend-mode: normal"><path d="M72.66339,337.85796v-334.67321h334.67321v334.67321z" fill="url(#color-1)"/><path d="M220.11392,338.70558c0,-10.0017 8.10797,-18.10967 18.10967,-18.10967c10.0017,0 18.10967,8.10797 18.10967,18.10967c0,10.0017 -8.10797,18.10967 -18.10967,18.10967c-10.0017,0 -18.10967,-8.10797 -18.10967,-18.10967z" fill="#000000"/><path d="M222.14491,338.70558c0,-8.88001 7.19867,-16.07868 16.07868,-16.07868c8.88001,0 16.07868,7.19867 16.07868,16.07868c0,8.88001 -7.19867,16.07868 -16.07868,16.07868c-8.88001,0 -16.07868,-7.19867 -16.07868,-16.07868z" fill="#ffffff"/></g></g></svg>